<svg width="198" height="43" fill="none" xmlns="http://www.w3.org/2000/svg"><g clip-path="url(#a)"><path d="M55.233 16.15c-1.335 2.442-4.167 7.817-4.42 8.216-.758 1.188-2.253.488-1.92-1.287.65-3.5 4.19-10.49 6.934-15.562-4.726 1.229-3.071-2.303-.27-3.141C60.608 2.87 68.53 1.163 74.94 1.835c2.883.303 2.52 2.252.236 2.349-6.647.42-12.88 1.717-14.82 2.48-1.213 1.793-1.872 3.11-2.867 4.709 1.801-.381 3.845-.75 5.368-.787 1.524-.037 1.909.35 1.882 1.006-.033.853-.89 1.01-1.716 1.228-2.348.643-3.288.864-5.692 1.608-1.34.42-1.382.405-2.099 1.722Zm91.256 3.139c-1.814-.439-6.302-.179-10.463 1.537 1.024-3.761 4.73-10.426 8.852-16.12 1.816-2.507-1.139-2.416-3.139.08-1.775 2.213-9.712 12.207-10.346 16.198-.394 2.475 1.433 3.921 4.332 3.116 2.9-.804 5.797-2.506 10.023-2.866 1.29-.115 2.261-1.579.741-1.946Zm-28.072 4.676c3.686 1.552 8.536-3.36 11.671-7.94 4.505-6.596 8.107-13.75 7.058-14.317-.583-.242-1.251-.051-1.869.985-9.982 16.698-14.092 19.388-14.947 18.469-.508-.547.466-3.04 2.629-7.504 1.877-3.878 4.611-7.697 3.227-8.71-1.335-.981-3.166 1.275-4.552 3.181-2.783 3.823-7.701 13.952-3.217 15.836Zm52.225-4.582c-2.428 0-3.122 2.467-.546 2.934 11.751 2.133 27.056-12.062 27.761-18.6.166-1.542-.838-2.631-2.343-2.916-7.424-1.407-37.237 8.332-37.237 24.608 0 6.632 4.728 12.132 12.429 12.132 8.77 0 18.068-6.348 22.146-11.65 1.1-1.432.893-3.865-1.679-1.895-7.479 5.733-14.396 7.117-18.46 7.148-6.514.051-11.602-6.165-5.109-13.741 6.943-8.103 23.768-13.459 24.325-12.781.657.792-10.674 14.748-21.287 14.76ZM157.706 2.247c-4.47 1.986-12.009 8.75-14.767 12.674-1.692 2.408.925 2.523 2.789.696 3.73-3.657 9.519-8.976 9.828-8.751.055.039-2.312 4.943-3.368 10.2a7.99 7.99 0 0 0-1.36-2.563c-.839-1.105-2.826-.923-1.843.82a13.34 13.34 0 0 1 1.407 4.095c.35 1.932.35 3.132.569 4.031.602 2.457 3.057 2.146 3.366-.235 1.403-10.797 5.404-17.132 6.372-19.247.758-1.647-1.271-2.486-2.993-1.72ZM67.467 23.69c-3.329-.03-4.826-2.435-4.447-5.076.745-5.205 5.324-10.576 10.57-11.037.819-.071 1.25-.722 2.047-.794 1.964-.182 3.424 2.031 2.957 5.365-.717 5.074-6.18 11.589-11.127 11.542ZM75.06 9.563c-5.705.841-10.408 10.31-8.506 11.165 2.05.932 9.325-4.646 8.506-11.16v-.005ZM26.856 33.687a9.084 9.084 0 0 1-13.342 8.022 9.098 9.098 0 1 1-4.3-17.105 9.022 9.022 0 0 1 4.3 1.075 9.083 9.083 0 0 1 13.362 8.008h-.02ZM2.286 28.73H3.99a9.356 9.356 0 0 1-1.106-.788 8.689 8.689 0 0 0-.602.788h.002ZM.646 33.548h1.624v-4.812a8.477 8.477 0 0 0-1.616 4.812H.647Zm2.226 5.907c.402-.33.828-.63 1.275-.895H2.271v-4.71H.655a8.51 8.51 0 0 0 2.226 5.605h-.008Zm6.136 2.79a12.614 12.614 0 0 1-2.995-4.22 7.36 7.36 0 0 0-.32.122v.41h-.962a9.866 9.866 0 0 0-1.638 1.113 8.53 8.53 0 0 0 5.915 2.576Zm-3.108-4.504a6.993 6.993 0 0 1-.205-.557v.63l.205-.073Zm3.166-.266a9.625 9.625 0 0 0-2.769.448 11.581 11.581 0 0 0 2.769 3.907v-4.355Zm0-3.64h-.672v1.269H5.692v1.024c.126.522.29 1.035.49 1.533a9.844 9.844 0 0 1 2.883-.467l.002-3.36Zm0-3.637h-.344v1.165h-3.03v1.284h2.702v.909h.676l-.004-3.358Zm0-4.65a11.587 11.587 0 0 0-2.42 3.174h2.076v1.17h.344v-4.344Zm0-.41a8.518 8.518 0 0 0-5.977 2.595 9.47 9.47 0 0 0 1.497 1.005h1.72a11.876 11.876 0 0 1 2.758-3.587l.002-.013Zm.3 0a11.81 11.81 0 0 1 2.61 3.299h.124a1.703 1.703 0 0 1 1.229.532 9.626 9.626 0 0 0 1.976-1.253 8.516 8.516 0 0 0-5.94-2.565l.002-.013Zm5.07 13.41 1.475-4.71h-2.28v4.384c.675.338 1.309.75 1.89 1.229.255-.284.493-.583.713-.895l-1.798-.008Zm1.657 1.075a6.204 6.204 0 0 0 1.76.254 6.315 6.315 0 0 0 3.818-1.33h-.91l-.276-1.193h-2.263l-.294 1.194h-1.024c-.246.38-.518.744-.813 1.087l.002-.012Zm3.89-4.435-.592-2.541-.614 2.545 1.206-.004Zm3.577.893a6.187 6.187 0 0 0-5.71-8.582c-.596 0-1.19.084-1.761.252.455.524.847 1.1 1.169 1.714l.205-.657h4.056l2.041 7.273Zm-8.04-8.144c-.611.503-1.28.93-1.99 1.276a1.704 1.704 0 0 1-.43 2.308c.05.231.09.46.122.694h.41v1.327h2.369l1.024-3.305a8.641 8.641 0 0 0-1.505-2.3Zm-6.155 1.968c.355-.005.71-.031 1.062-.078a1.699 1.699 0 0 1 1.229-1.33 11.671 11.671 0 0 0-2.298-2.947l.007 4.355Zm0 3.637h1.163v-1.327h2.393c-.029-.18-.06-.357-.094-.533a1.704 1.704 0 0 1-2.428-1.541c-.342.032-.688.055-1.024.059l-.01 3.342Zm0 3.638c.389.005.777.034 1.163.088v-3.425H9.366v3.337Zm0 4.652c1.01-.94 1.85-2.048 2.48-3.276h-1.317v-.985a9.18 9.18 0 0 0-1.163-.088v4.35Zm5.952-2.164a9.564 9.564 0 0 0-1.685-1.114h-1.456a12.145 12.145 0 0 1-2.811 3.686 8.5 8.5 0 0 0 5.952-2.566v-.006Zm8.93-11.526-.515.41-.727-.721.426-.53a9.499 9.499 0 0 0-.83-.653l-.392.54-.889-.504.277-.63a8.634 8.634 0 0 0-.97-.41l-.24.635-.996-.264.111-.684a8.107 8.107 0 0 0-1.05-.154l-.066.678h-1.024l-.073-.698c-.354.019-.706.06-1.055.123l.115.686-.993.27-.252-.666a9.05 9.05 0 0 0-1.06.428 9.08 9.08 0 0 1 1.842 1.522 6.495 6.495 0 0 1 7.805 9.017l.578 2.017h-2.103a6.552 6.552 0 0 1-6.294 1.323 9.274 9.274 0 0 1-1.843 1.521c.345.167.702.31 1.067.426l.23-.655 1 .237-.096.707c.348.06.7.099 1.052.118l.054-.685 1.024-.025.09.69a7.708 7.708 0 0 0 1.046-.151l-.123-.666.987-.29.264.638c.331-.115.655-.252.969-.41l-.289-.614.878-.53.41.547a9.19 9.19 0 0 0 .83-.657l-.43-.506.712-.74.53.42c.23-.269.443-.551.639-.845l-.543-.377.496-.899.614.264c.155-.318.292-.645.41-.979l-.615-.22.248-1.002.663.1c.064-.328.107-.66.13-.993l-.652-.065v-1.024l.662-.074c-.022-.35-.066-.699-.131-1.044l-.647.108-.277-.988.627-.242a9.327 9.327 0 0 0-.4-.979l-.601.273-.518-.885.542-.395a8.796 8.796 0 0 0-.635-.844ZM78.39 19.83c1.753-4.71 4.63-10.164 5.342-11.466-.557.172-.829.342-1.408.514-1.874.55-1.923-1.098.225-2.537 3.16-2.118 6.38-3.002 10.238-3.012 4.074-.013 4.973 2.09 4.795 3.456-.4 3.071-6.685 6.823-10.793 8.77 1.403 1.31 6.108 4.64 9.757 6.302 1.716.782.305 2.304-2.195 1.58-3.217-.927-8.635-4.205-11.59-6.474-.837 1.854-1.783 3.788-2.52 5.468-1.04 2.348-2.91.23-1.85-2.607v.006Zm5.717-5.85c4.42-2.592 9.355-5.324 9.548-6.962.168-1.433-2.953-.86-6.1.242-1.024 1.788-2.025 3.888-3.448 6.714v.006ZM119.654 4.9c1.548-2.578-1.196-3.581-4.3-1.695s-6.587 4.758-10.791 10.596c1.653-7.652 2.457-8.112 2.572-9.624.106-1.306-.889-2.252-3.17-.485-1.91 1.474-5.518 5.756-8.307 11.671-1.26 2.674.301 4.937 1.356 2.77.973-1.996 4.351-7.606 6.458-10.184-1.407 4.265-2.211 8.06-2.435 10.852-.17 2.123 1.753 3.127 2.984.844 2.502-4.64 10.223-12.734 10.483-12.49.078.073-5.047 8.657-5.938 14.777-.456 3.108 1.671 4.54 2.341 2.24 2.426-8.33 4.678-12.507 8.747-19.278V4.9Zm21.499 28.529h-2.518v-2.357h-1.581v6.016h1.581v-2.301h2.518v2.301h1.581v-6.016h-1.581v2.357Zm-7.381.225a16.164 16.164 0 0 1-1.446-.162 1.567 1.567 0 0 1-.614-.204.373.373 0 0 1-.15-.318.506.506 0 0 1 .258-.465 1.63 1.63 0 0 1 .82-.153c.233-.004.466.015.696.055.162.028.315.09.45.185.12.09.212.214.266.354l1.333-.725a1.516 1.516 0 0 0-.864-.915 4.526 4.526 0 0 0-1.798-.289 3.81 3.81 0 0 0-1.39.23c-.355.127-.663.359-.884.665-.21.308-.317.674-.305 1.046a1.87 1.87 0 0 0 .174.88c.135.234.348.413.602.506.391.142.8.227 1.216.25a14.26 14.26 0 0 1 1.282.162c.195.022.381.093.542.205a.462.462 0 0 1 .139.362.5.5 0 0 1-.124.36.751.751 0 0 1-.392.193 3.369 3.369 0 0 1-.702.06 3.244 3.244 0 0 1-.784-.077 1.028 1.028 0 0 1-.449-.215.818.818 0 0 1-.223-.356l-1.327.707c.049.248.185.471.383.628.265.208.572.356.899.434a5.26 5.26 0 0 0 1.366.156c.956 0 1.673-.158 2.152-.475a1.6 1.6 0 0 0 .71-1.421c-.01-1.012-.623-1.568-1.838-1.669l.002.006Zm-13.924-1.31c.239.57.352 1.186.33 1.804a3.428 3.428 0 0 1-.385 1.691 2.494 2.494 0 0 1-1.063 1.034 3.39 3.39 0 0 1-1.55.342c-1.032 0-1.798-.257-2.299-.772-.501-.515-.752-1.317-.752-2.408a3.32 3.32 0 0 1 .41-1.697 2.614 2.614 0 0 1 1.087-1.036c.465-.232.979-.35 1.499-.344a3.81 3.81 0 0 1 1.724.341c.443.221.797.588 1.001 1.039l-.002.006Zm-1.294 1.798c0-.635-.133-1.09-.409-1.368a1.377 1.377 0 0 0-1.049-.41 1.61 1.61 0 0 0-.702.142.993.993 0 0 0-.463.507 2.486 2.486 0 0 0-.17 1.024c0 .639.129 1.098.391 1.376a1.365 1.365 0 0 0 1.041.41c.245.007.488-.04.712-.14.212-.11.377-.29.467-.511.133-.327.195-.678.182-1.03Zm8.299 1.8h-.293l-1.886-4.87h-2.844v6.016h1.346v-4.873h.292l1.88 4.873h2.844v-6.016h-1.347l.008 4.87Zm17.8 1.146h1.58v-6.016h-1.58v6.016Zm-87.321-6.016h-1.58v6.016h4.326v-1.37h-2.746v-4.646Zm95.988.997c.235.384.351.829.334 1.278.018.45-.095.895-.326 1.282-.24.349-.589.609-.993.74a5.072 5.072 0 0 1-1.693.24h-.913v1.479h-1.581v-6.016h2.799c.489-.011.976.072 1.433.246.386.145.717.408.946.751h-.006Zm-1.282 1.278a1.225 1.225 0 0 0-.123-.604.685.685 0 0 0-.368-.311 1.912 1.912 0 0 0-.655-.092h-1.163v2.002h.978c.25.007.499-.024.739-.092a.822.822 0 0 0 .441-.311 1.03 1.03 0 0 0 .157-.592h-.006Zm-75.719 2.205c-.261.18-.574.268-.89.25-.271.008-.54-.048-.785-.164a1.1 1.1 0 0 1-.5-.548 2.51 2.51 0 0 1-.178-1.039c0-.59.137-1.003.41-1.24.29-.245.662-.372 1.042-.357.285-.014.569.051.82.189a.726.726 0 0 1 .31.643l1.638-.51a1.555 1.555 0 0 0-.819-1.343 3.971 3.971 0 0 0-1.949-.41 3.587 3.587 0 0 0-1.572.336c-.463.223-.847.58-1.104 1.024a3.253 3.253 0 0 0-.41 1.683c0 1.07.262 1.862.785 2.375.522.513 1.301.77 2.336.77.991 0 1.711-.184 2.16-.55a1.859 1.859 0 0 0 .692-1.471l-1.65-.352a.894.894 0 0 1-.336.714Zm-29.462-3.214c.239.57.351 1.185.33 1.804a3.431 3.431 0 0 1-.386 1.69c-.24.445-.61.806-1.06 1.035a3.407 3.407 0 0 1-1.552.342c-1.032 0-1.799-.258-2.3-.772-.5-.515-.751-1.317-.751-2.408a3.294 3.294 0 0 1 .41-1.698 2.6 2.6 0 0 1 1.084-1.036c.466-.232.98-.35 1.5-.344a3.809 3.809 0 0 1 1.723.342c.445.223.798.592 1.002 1.045Zm-1.297 1.804c0-.635-.133-1.09-.399-1.368a1.378 1.378 0 0 0-1.048-.41 1.608 1.608 0 0 0-.703.142.995.995 0 0 0-.462.507 2.512 2.512 0 0 0-.17 1.024c0 .639.13 1.098.39 1.376a1.356 1.356 0 0 0 1.041.41c.245.007.488-.04.713-.14.211-.11.377-.29.467-.511.129-.328.187-.679.171-1.03Zm37.604-.72h-2.52v-2.35h-1.58v6.016h1.58v-2.301h2.52v2.301h1.579v-6.016h-1.579v2.35Zm-45.388 2.343h-.34l-.99-4.693h-2.168l-.983 4.693h-.343l-1.1-4.693h-1.638l1.577 6.016h2.457l.93-4.441h.364l.899 4.443h2.502l1.53-6.016h-1.639l-1.058 4.691Zm71.284-3.696c.236.384.353.828.336 1.278a2.31 2.31 0 0 1-.328 1.282c-.24.35-.589.61-.993.74a5.06 5.06 0 0 1-1.691.24h-.916v1.479h-1.58v-6.016h2.79c.49-.01.976.073 1.434.246.386.145.718.408.948.751Zm-1.282 1.278a1.225 1.225 0 0 0-.123-.604.67.67 0 0 0-.362-.3 1.914 1.914 0 0 0-.656-.093h-1.163v2.002h.979c.25.007.499-.024.739-.092a.819.819 0 0 0 .443-.31c.108-.182.158-.392.143-.603Zm3.104 3.741h1.579v-6.016h-1.579v6.016Zm-43.976-4.71c.27.541.397 1.142.371 1.745a2.891 2.891 0 0 1-.448 1.655 2.677 2.677 0 0 1-1.217.985c-.556.22-1.15.329-1.748.319h-2.496v-6.01h2.142a6.194 6.194 0 0 1 2.205.324c.502.176.925.527 1.191.989v-.006Zm-1.322 1.745a2.141 2.141 0 0 0-.205-1.036 1.183 1.183 0 0 0-.627-.543 2.993 2.993 0 0 0-1.07-.161h-.727v3.38h.91c.308.007.615-.04.906-.139.25-.092.462-.267.598-.498.16-.306.234-.651.215-.997v-.006Zm-12.757.555 1.595 2.279v.131h-1.736l-1.327-2.03H50.1v2.03h-1.572v-6.016h2.961c.844 0 1.502.151 1.976.453a1.487 1.487 0 0 1 .71 1.35c.019.4-.09.795-.31 1.13a1.988 1.988 0 0 1-1.037.673Zm-.305-1.536a.818.818 0 0 0-.13-.503.651.651 0 0 0-.365-.238 2.46 2.46 0 0 0-.615-.061H50.09v1.589h1.042c.35.017.7-.045 1.024-.183a.63.63 0 0 0 .368-.604h-.002Zm38.144-2.07 1.87 6.016h-1.75l-.283-.997h-2.515l-.284.997h-1.706l1.867-6.016h2.801Zm-.522 3.764-.792-2.803h-.205l-.794 2.797 1.791.006Zm7.918.729h-.276l-1.255-4.493h-2.738v6.016h1.319V32.36h.284l1.434 4.728h2.24l1.447-4.728h.289v4.728h1.314v-6.016h-2.737l-1.32 4.493Z" fill="url(#b)"/><path d="M44.68 12.767a5.668 5.668 0 0 0-2.06-1.72 3.686 3.686 0 0 0 1.597-3.045c0-2.11-1.433-3.704-4.076-3.704h-1.032v8.469h5.571ZM38.57 4.296h-5.117v8.469h5.117V4.296ZM38.57 13.297h-5.117v8.47h5.117v-8.47ZM39.109 13.295v8.471h1.042c3.466 0 5.661-2.457 5.661-5.647a5.577 5.577 0 0 0-.772-2.824H39.11ZM14.392 12.767l-2.995-8.469H9.104v8.469h5.288ZM8.573 12.767V4.298H6.28l-2.994 8.469h5.287ZM8.573 13.295H3.098L.104 21.766h4.41l1.238-3.53h2.821v-4.94ZM9.104 13.295v4.941h2.823l1.235 3.53h4.41l-2.993-8.47H9.103ZM30.212 12.767a5.684 5.684 0 0 0-2.06-1.72 3.7 3.7 0 0 0 1.595-3.045c0-2.11-1.433-3.704-4.075-3.704H24.63v8.469h5.582ZM24.102 4.296h-5.117v8.469h5.117V4.296ZM24.102 13.297h-5.117v8.47h5.117v-8.47ZM24.63 13.295v8.471h1.042c3.469 0 5.664-2.457 5.664-5.647a5.577 5.577 0 0 0-.772-2.824H24.63Z" fill="red"/></g><defs><linearGradient id="b" x1="2.969" y1="38.732" x2="196.002" y2="7.292" gradientUnits="userSpaceOnUse"><stop stop-color="#002E63"/><stop offset="1" stop-color="#00F"/></linearGradient><clipPath id="a"><path fill="#fff" d="M0 .5h198v42.385H0z"/></clipPath></defs></svg>