<?xml version="1.0" encoding="UTF-8"?>
<svg id="Camada_2" data-name="Camada 2" xmlns="http://www.w3.org/2000/svg" xmlns:xlink="http://www.w3.org/1999/xlink" viewBox="0 0 65 65">
  <defs>
    <style>
      .cls-1 {
        fill: url(#Gradiente_sem_nome);
      }

      .cls-1, .cls-2 {
        stroke-width: 0px;
      }

      .cls-2 {
        fill: #fff;
      }
    </style>
    <linearGradient id="Gradiente_sem_nome" data-name="Gradiente sem nome" x1="12.6" y1="39.47" x2="53.89" y2="46.2" gradientTransform="translate(0 75.89) scale(1 -1)" gradientUnits="userSpaceOnUse">
      <stop offset="0" stop-color="#002e63"/>
      <stop offset="1" stop-color="blue"/>
    </linearGradient>
  </defs>
  <g id="Camada_1-2" data-name="Camada 1">
    <g>
      <circle class="cls-2" cx="32.5" cy="32.5" r="32.5"/>
      <path class="cls-1" d="M25.07,32.78c-2.43,0-3.12,2.47-.55,2.93,11.75,2.13,27.06-12.06,27.76-18.6.17-1.54-.84-2.63-2.34-2.92-7.42-1.41-37.24,8.33-37.24,24.61,0,6.63,4.73,12.13,12.43,12.13,8.77,0,18.07-6.35,22.15-11.65,1.1-1.43.89-3.86-1.68-1.9-7.48,5.73-14.4,7.12-18.46,7.15-6.51.05-11.6-6.17-5.11-13.74,6.94-8.1,23.77-13.46,24.32-12.78.66.79-10.67,14.75-21.29,14.76h0Z"/>
    </g>
  </g>
</svg>