<svg width="281" height="75" fill="none" xmlns="http://www.w3.org/2000/svg">
  <g clip-path="url(#a)">
    <path class="cls-1" d="M11.981 29.025c-2.494 4.575 -7.819 14.663 -8.287 15.413 -1.425 2.231 -4.219 0.919 -3.6 -2.419 1.219 -6.563 7.856 -19.669 12.994 -29.175 -8.869 2.306 -5.756 -4.313 -0.506 -5.888C22.05 4.125 36.9 0.938 48.919 2.194c5.4 0.563 4.725 4.219 0.45 4.406 -12.469 0.787 -24.15 3.225 -27.788 4.65 -2.269 3.356 -3.506 5.831 -5.381 8.831 3.375 -0.713 7.219 -1.406 10.069 -1.481s3.581 0.656 3.525 1.894c-0.056 1.594 -1.669 1.894 -3.225 2.306 -4.406 1.2 -6.169 1.613 -10.669 3.019 -2.513 0.787 -2.587 0.75 -3.938 3.225Zm171.094 5.888c-3.394 -0.825 -11.813 -0.337 -19.613 2.888 1.913 -7.05 8.869 -19.556 16.594 -30.225 3.413 -4.706 -2.137 -4.537 -5.888 0.15 -3.319 4.144 -18.206 22.894 -19.406 30.375 -0.731 4.65 2.681 7.35 8.119 5.85s10.875 -4.706 18.787 -5.381c2.419 -0.206 4.237 -2.963 1.387 -3.656ZM130.444 43.688c6.919 2.906 16.012 -6.3 21.881 -14.888 8.456 -12.375 15.206 -25.781 13.237 -26.85 -1.087 -0.45 -2.344 -0.094 -3.506 1.856 -18.713 31.313 -26.419 36.356 -28.031 34.631 -0.956 -1.031 0.881 -5.7 4.931 -14.063 3.525 -7.275 8.644 -14.438 6.056 -16.331 -2.494 -1.837 -5.944 2.4 -8.531 5.963 -5.212 7.162 -14.438 26.156 -6.038 29.7Zm97.931 -8.588c-4.556 0 -5.85 4.631 -1.031 5.494 22.031 3.994 50.737 -22.613 52.05 -34.875 0.319 -2.888 -1.575 -4.931 -4.387 -5.475 -13.912 -2.644 -69.825 15.619 -69.825 46.144 0 12.431 8.869 22.744 23.306 22.744 16.444 0 33.881 -11.906 41.531 -21.844 2.063 -2.681 1.669 -7.237 -3.15 -3.563 -14.025 10.744 -27 13.35 -34.613 13.406 -12.206 0.094 -21.75 -11.569 -9.581 -25.762 13.013 -15.188 44.569 -25.238 45.6 -23.962 1.238 1.481 -20.006 27.656 -39.919 27.675ZM204.113 2.963c-8.381 3.731 -22.519 16.406 -27.694 23.756 -3.169 4.519 1.744 4.725 5.231 1.313 6.994 -6.863 17.85 -16.838 18.431 -16.406 0.094 0.075 -4.331 9.263 -6.319 19.125 -0.544 -1.744 -1.406 -3.375 -2.55 -4.8 -1.575 -2.063 -5.306 -1.725 -3.45 1.537 1.294 2.4 2.175 4.988 2.644 7.669 0.656 3.619 0.656 5.869 1.069 7.556 1.125 4.612 5.737 4.031 6.319 -0.45 2.625 -20.25 10.125 -32.119 11.944 -36.094 1.425 -3.094 -2.381 -4.669 -5.606 -3.225ZM34.913 43.163c-6.244 -0.056 -9.056 -4.556 -8.344 -9.525 1.387 -9.75 9.975 -19.837 19.819 -20.7 1.537 -0.131 2.344 -1.35 3.844 -1.481 3.675 -0.337 6.412 3.806 5.55 10.069 -1.35 9.506 -11.587 21.731 -20.869 21.637M49.144 16.688c-10.706 1.575 -19.519 19.331 -15.956 20.944 3.844 1.744 17.475 -8.719 15.956 -20.925Zm6.244 19.238C58.669 27.094 64.069 16.875 65.4 14.419c-1.05 0.319 -1.556 0.638 -2.644 0.956 -3.506 1.031 -3.6 -2.063 0.412 -4.763 5.925 -3.975 11.963 -5.625 19.2 -5.644 7.631 -0.019 9.319 3.919 8.981 6.487 -0.75 5.756 -12.525 12.788 -20.231 16.444 2.625 2.456 11.456 8.7 18.3 11.813 3.225 1.463 0.581 4.313 -4.106 2.963 -6.038 -1.744 -16.2 -7.875 -21.731 -12.131 -1.575 3.469 -3.337 7.106 -4.725 10.256 -1.95 4.406 -5.456 0.431 -3.469 -4.894Zm10.725 -10.969c8.287 -4.856 17.55 -9.975 17.906 -13.05 0.319 -2.681 -5.531 -1.613 -11.438 0.45 -1.913 3.356 -3.806 7.294 -6.469 12.581Zm66.656 -17.025c2.906 -4.838 -2.25 -6.713 -8.063 -3.188 -5.813 3.544 -12.356 8.925 -20.231 19.875 3.094 -14.344 4.612 -15.206 4.819 -18.037 0.206 -2.456 -1.669 -4.219 -5.944 -0.919 -3.581 2.756 -10.35 10.8 -15.581 21.881 -2.362 5.006 0.563 9.263 2.55 5.194 1.819 -3.75 8.156 -14.269 12.113 -19.087 -2.644 7.987 -4.144 15.113 -4.556 20.344 -0.319 3.975 3.281 5.869 5.588 1.575 4.688 -8.7 19.163 -23.869 19.65 -23.419 0.15 0.131 -9.469 16.238 -11.138 27.712 -0.863 5.831 3.131 8.512 4.387 4.2 4.556 -15.619 8.775 -23.456 16.406 -36.15Z" fill="url(#b)"/>
  </g>
  <defs>
    <linearGradient id="b" x1="2.969" y1="38.732" x2="196.002" y2="7.292" gradientUnits="userSpaceOnUse">
      <stop stop-color="#002E63"/>
      <stop offset="1" stop-color="#00F"/>
    </linearGradient>
    <clipPath id="a">
      <path fill="#fff" d="M0 0.938h371.25v79.472H0z"/>
    </clipPath>
  </defs>
</svg>