<?xml version="1.0" encoding="UTF-8"?>
<svg id="Camada_2" data-name="Camada 2" xmlns="http://www.w3.org/2000/svg" xmlns:xlink="http://www.w3.org/1999/xlink" viewBox="0 0 2880.13 1054.03">
  


  <defs>
    <style>
      .cls-1 {
        fill: url(#Gradiente_sem_nome_191);
      }

      .cls-1, .cls-2, .cls-3, .cls-4 {
        stroke-width: 0px;
      }

      .cls-2 {
        fill: url(#Gradiente_sem_nome_160);
      }

      .cls-3 {
        fill: url(#Gradiente_sem_nome_167);
      }

      .cls-4 {
        fill: url(#Gradiente_sem_nome_182);
      }
    </style>
    <linearGradient id="Gradiente_sem_nome_160" data-name="Gradiente sem nome 160" x1="3020" y1="513.76" x2="139.87" y2="513.76" gradientTransform="translate(3020 13.26) rotate(-180) scale(1 -1)" gradientUnits="userSpaceOnUse">
      <stop offset="0" stop-color="#bbc7f6" stop-opacity=".5"/>
      <stop offset=".57" stop-color="#c2e2f5" stop-opacity=".5"/>
      <stop offset=".87" stop-color="#c7f3f4" stop-opacity=".5"/>
      <stop offset="1" stop-color="#c9f6f4" stop-opacity=".5"/>
    </linearGradient>
    <linearGradient id="Gradiente_sem_nome_167" data-name="Gradiente sem nome 167" x1=".13" y1="667.52" x2="2880.13" y2="667.52" gradientUnits="userSpaceOnUse">
      <stop offset="0" stop-color="#899def" stop-opacity=".6"/>
      <stop offset=".25" stop-color="rgba(141, 172, 237, .6)" stop-opacity=".6"/>
      <stop offset=".56" stop-color="#95cbec" stop-opacity=".6"/>
      <stop offset=".87" stop-color="#9ee8eb" stop-opacity=".6"/>
      <stop offset=".99" stop-color="#a0f0ec" stop-opacity=".6"/>
    </linearGradient>
    <linearGradient id="Gradiente_sem_nome_182" data-name="Gradiente sem nome 182" x1="3019.87" y1="765.27" x2="139.87" y2="765.27" gradientTransform="translate(3020 13.26) rotate(-180) scale(1 -1)" gradientUnits="userSpaceOnUse">
      <stop offset="0" stop-color="#6583e9" stop-opacity=".7"/>
      <stop offset=".57" stop-color="#75bce7" stop-opacity=".7"/>
      <stop offset=".87" stop-color="#7fe0e5" stop-opacity=".7"/>
      <stop offset=".99" stop-color="#81eae4" stop-opacity=".7"/>
    </linearGradient>
    <linearGradient id="Gradiente_sem_nome_191" data-name="Gradiente sem nome 191" x1="3019.87" y1="868.27" x2="139.87" y2="868.27" gradientTransform="translate(3020 13.26) rotate(-180) scale(1 -1)" gradientUnits="userSpaceOnUse">
      <stop offset="0" stop-color="#4968e5" stop-opacity=".8"/>
      <stop offset=".57" stop-color="#5eb4e2" stop-opacity=".8"/>
      <stop offset=".87" stop-color="#69dae0" stop-opacity=".8"/>
      <stop offset=".99" stop-color="#6ce7e0" stop-opacity=".8"/>
    </linearGradient>
  </defs>
  <g id="Camada_3" data-name="Camada 3">
    <path class="cls-2" d="M.5,1050.39L0,96.51S274.44-16.39,348.13,2.03c137,0,334,172,504,172,246,0,387.01-146.8,635-143,261,4,368.21,191.58,704,163,235-20,689-96,689-96v956L.5,1050.39Z"/>
    <path class="cls-3" d="M2880.13,1054.03H.13V334.03s223,99,376,93c163-1,329-134,546-146,200-2,424,148,698,161,344-8,574.35-104.6,778-127,200-22,482,20,482,20v719Z"/>
    <path class="cls-4" d="M2880.13,573.03s-311.12,43.32-448,49c-603,25-690-118-838-118-200,0-501.98,162-781,162-191,0-243-95-567-93-54.08.33-246,2-246,2v478s2880-6.35,2880-6.35c0-115.6,0-359.71,0-473.65Z"/>
    <path class="cls-1" d="M2880.13,811.14s-358-101.1-684-101.1-473.37,65.96-602,135.12c-297,159.69-384-119.06-781-114.33-157.99,1.88-500,51.97-810,82.21-.43.04-3,240.01-3,240.01l2880-3c0-54.71,0-184.96,0-238.89Z"/>
  </g>
</svg>