<?xml version="1.0" encoding="UTF-8"?>
<svg id="Camada_2" data-name="Camada 2" xmlns="http://www.w3.org/2000/svg" viewBox="0 0 2438 356">
  <defs>
    <style>
    @import url("https://fonts.googleapis.com/css2?family=Mirza:wght@400;500;600;700");
      .cls-1 {
        font-family: Mirza-Bold, Mirza;
        font-size: 119.45px;
        font-weight: 700;
      }

      .cls-1, .cls-2 {
        fill: #fff;
      }

      .cls-2 {
        stroke-width: 0px;
      }
    </style>
  </defs>
  <g id="Camada_4" data-name="Camada 4">
    <g id="MINIMEAL_BERLIN_E-PRIX_RODADA_10" data-name="MINIMEAL BERLIN E-PRIX, RODADA 10">
      <path class="cls-2" d="M27.48,214.87l-.77-2.49-2.24-6.91c-2.52-.16-5.21-.23-8.06-.23-3.08,0-5.28.1-6.59.31-1.22,3.47-2.22,6.58-3.01,9.32-1.12.31-2.13.47-3.01.47-1.17,0-2.36-.16-3.57-.47,1.31-2.59,3.62-8.7,6.94-18.33,3.32-9.63,5.79-17.17,7.43-22.6,1.87-.26,3.43-.39,4.7-.39,1.35,0,2.8.13,4.35.39,1.63,5.44,4.11,12.97,7.43,22.6,3.32,9.63,5.63,15.74,6.94,18.33-1.68.36-3.5.54-5.47.54-1.54,0-3.22-.18-5.05-.54ZM22.36,199.25c-1.96-6.11-3.72-11.16-5.26-15.15-2.01,5.64-3.74,10.67-5.19,15.07,2.24.16,4.63.23,7.15.23.89,0,1.99-.05,3.29-.16Z"/>
      <path class="cls-2" d="M59.09,211.8c-2.34-2.72-3.5-6.59-3.5-11.61,0-3.42.69-6.46,2.07-9.13,1.38-2.67,3.29-4.75,5.75-6.25,2.45-1.5,5.27-2.25,8.45-2.25s5.75.62,7.85,1.86c0,1.19-.21,2.78-.63,4.78-.42,1.99-.91,3.74-1.47,5.24-1.73-1.71-3.4-3.05-5.01-4.04-1.61-.98-2.96-1.48-4.03-1.48-1.17.88-2.09,2.15-2.77,3.81-.68,1.66-1.02,3.52-1.02,5.59,0,5.96,2.38,8.93,7.15,8.93,1.59,0,3.08-.25,4.49-.74,1.4-.49,2.62-1.2,3.65-2.14l.56,5.2c-1.26,1.86-2.97,3.38-5.12,4.54-2.15,1.17-4.3,1.75-6.45,1.75-4.3,0-7.62-1.36-9.95-4.08Z"/>
      <path class="cls-2" d="M85.48,213.9c-1.19-1.32-1.79-3.09-1.79-5.32,0-3.31,1.35-5.89,4.07-7.73,2.71-1.84,6.84-3.02,12.41-3.53-.14-1.92-.63-3.29-1.47-4.12-.84-.83-2.17-1.24-4-1.24-1.64,0-3.27.26-4.91.78-1.64.52-3.04,1.22-4.21,2.1l-.56-4.58c1.5-2.28,3.43-4.13,5.82-5.55,2.38-1.42,4.81-2.14,7.29-2.14,3.5,0,6.19.89,8.06,2.68,1.87,1.79,2.8,4.36,2.8,7.73,0,1.86-.12,3.96-.35,6.29-.19,2.49-.28,4.32-.28,5.51,0,1.92.19,3.43.56,4.54.37,1.11,1.1,2.32,2.17,3.61-2.38,1.66-4.98,2.64-7.78,2.95-1.26-.88-2.22-2.12-2.87-3.73-1.64,1.14-3.32,2.05-5.05,2.72-1.73.67-3.29,1.01-4.7,1.01-2.29,0-4.03-.66-5.22-1.98ZM99.67,208.42v-.78c0-.62.02-1.31.07-2.06.05-.75.09-1.36.14-1.83l.21-2.56c-2.34.26-4.11.87-5.33,1.83-1.22.96-1.82,2.21-1.82,3.77,0,.73.15,1.45.46,2.17.3.73.69,1.27,1.16,1.63,1.73-.26,3.43-.98,5.12-2.17Z"/>
      <path class="cls-2" d="M117.68,215.02c.33-5.18.49-10.69.49-16.54,0-2.85-.08-5.02-.25-6.52-.16-1.5-.42-2.69-.77-3.57-.35-.88-.92-1.79-1.72-2.72,1.07-.98,2.23-1.7,3.47-2.14,1.24-.44,2.35-.66,3.33-.66,2.76,0,4.39,1.48,4.91,4.43,1.12-1.5,2.41-2.67,3.86-3.5,1.45-.83,2.99-1.24,4.63-1.24,4.21,0,6.92,1.84,8.13,5.52,1.12-1.76,2.46-3.12,4.03-4.08,1.56-.96,3.24-1.44,5.01-1.44,5.89,0,8.83,3.57,8.83,10.72l-.14,4.89-.14,5.2c0,5.44.47,9.32,1.4,11.65-1.31.31-3.25.47-5.82.47-1.64,0-3.27-.16-4.91-.47.33-5.28.49-11.03.49-17.24,0-2.07-.33-3.56-.98-4.47-.65-.91-1.71-1.36-3.15-1.36s-2.83.44-4,1.32c0,.93-.05,2.75-.14,5.44l-.07,4.66c0,5.44.47,9.32,1.4,11.65-1.31.31-3.25.47-5.82.47-1.64,0-3.27-.16-4.91-.47.33-5.28.49-11.03.49-17.24,0-2.07-.33-3.56-.98-4.47-.65-.91-1.71-1.36-3.15-1.36-1.59,0-2.92.47-4,1.4-.14,2.8-.21,6.14-.21,10.02,0,5.44.47,9.32,1.4,11.65-1.31.31-2.87.47-4.7.47-2.38,0-4.39-.16-6.03-.47Z"/>
      <path class="cls-2" d="M170.29,216.19c.16-5.54.25-11.44.25-17.71,0-2.85-.08-5.02-.25-6.52-.16-1.5-.42-2.69-.77-3.57-.35-.88-.92-1.79-1.72-2.72.98-.98,2.04-1.7,3.19-2.14,1.14-.44,2.16-.66,3.05-.66,2.76,0,4.44,1.35,5.05,4.04,1.21-1.24,2.6-2.21,4.17-2.91,1.56-.7,3.21-1.05,4.94-1.05,3.65,0,6.46,1.33,8.45,4,1.99,2.67,2.98,6.54,2.98,11.61,0,5.39-1.4,9.59-4.21,12.62s-6.71,4.54-11.71,4.54c-1.68,0-3.22-.23-4.63-.7.23,5.64.63,9.79,1.19,12.43-3.08,1.04-6.61,1.55-10.58,1.55.23-3,.43-7.28.6-12.82ZM188.34,208.3c1.17-1.68,1.75-4.03,1.75-7.03,0-2.38-.44-4.44-1.33-6.18-.89-1.73-2.15-3.02-3.79-3.84-2.01,0-3.93.6-5.75,1.79-.19,4.76-.28,9.19-.28,13.28v2.25c1.26,1.5,2.78,2.25,4.56,2.25,2.06,0,3.67-.84,4.84-2.52Z"/>
      <path class="cls-2" d="M205.26,213.9c-1.19-1.32-1.79-3.09-1.79-5.32,0-3.31,1.35-5.89,4.07-7.73,2.71-1.84,6.84-3.02,12.41-3.53-.14-1.92-.63-3.29-1.47-4.12-.84-.83-2.17-1.24-4-1.24-1.64,0-3.27.26-4.91.78-1.64.52-3.04,1.22-4.21,2.1l-.56-4.58c1.5-2.28,3.43-4.13,5.82-5.55,2.38-1.42,4.81-2.14,7.29-2.14,3.5,0,6.19.89,8.06,2.68,1.87,1.79,2.8,4.36,2.8,7.73,0,1.86-.12,3.96-.35,6.29-.19,2.49-.28,4.32-.28,5.51,0,1.92.19,3.43.56,4.54.37,1.11,1.1,2.32,2.17,3.61-2.38,1.66-4.98,2.64-7.78,2.95-1.26-.88-2.22-2.12-2.87-3.73-1.64,1.14-3.32,2.05-5.05,2.72-1.73.67-3.29,1.01-4.7,1.01-2.29,0-4.03-.66-5.22-1.98ZM219.46,208.42v-.78c0-.62.02-1.31.07-2.06.05-.75.09-1.36.14-1.83l.21-2.56c-2.34.26-4.11.87-5.33,1.83-1.22.96-1.82,2.21-1.82,3.77,0,.73.15,1.45.46,2.17.3.73.69,1.27,1.16,1.63,1.73-.26,3.43-.98,5.12-2.17Z"/>
      <path class="cls-2" d="M237.47,215.02c.33-5.18.49-10.69.49-16.54,0-2.85-.08-5.02-.25-6.52-.16-1.5-.42-2.69-.77-3.57-.35-.88-.92-1.79-1.72-2.72,1.07-.98,2.23-1.7,3.47-2.14,1.24-.44,2.35-.66,3.33-.66,2.8,0,4.44,1.53,4.91,4.58,1.26-1.55,2.7-2.76,4.31-3.61,1.61-.85,3.33-1.28,5.15-1.28,5.47,0,8.2,3.57,8.2,10.72l-.14,4.89-.14,5.2c0,5.44.47,9.32,1.4,11.65-1.31.31-3.25.47-5.82.47-1.64,0-3.27-.16-4.91-.47.33-5.28.49-11.03.49-17.24,0-2.07-.33-3.56-.98-4.47-.65-.91-1.71-1.36-3.15-1.36-1.82,0-3.27.52-4.35,1.55-.14,2.69-.21,5.98-.21,9.86,0,5.44.47,9.32,1.4,11.65-1.31.31-2.87.47-4.7.47-2.38,0-4.39-.16-6.03-.47Z"/>
      <path class="cls-2" d="M271.4,215.02c.33-6.63.49-13.23.49-19.81,0-9.01-.23-16.05-.7-21.13,3.08-1.04,6.61-1.55,10.58-1.55-.42,3.42-.75,8.36-.98,14.84,2.62-3.21,5.75-4.82,9.39-4.82,5.47,0,8.2,3.57,8.2,10.72l-.14,4.89-.14,5.2c0,5.44.47,9.32,1.4,11.65-1.31.31-3.25.47-5.82.47-1.59,0-3.2-.16-4.84-.47.33-5.44.49-11.19.49-17.24,0-2.07-.33-3.56-.98-4.47-.65-.91-1.73-1.36-3.22-1.36-1.73,0-3.2.54-4.42,1.63l-.07,4.43c0,9.06.49,14.73,1.47,17.01-1.73.31-3.48.47-5.26.47-1.54,0-3.36-.16-5.47-.47Z"/>
      <path class="cls-2" d="M305.64,213.9c-1.19-1.32-1.79-3.09-1.79-5.32,0-3.31,1.35-5.89,4.07-7.73,2.71-1.84,6.84-3.02,12.41-3.53-.14-1.92-.63-3.29-1.47-4.12-.84-.83-2.17-1.24-4-1.24-1.64,0-3.27.26-4.91.78-1.64.52-3.04,1.22-4.21,2.1l-.56-4.58c1.5-2.28,3.43-4.13,5.82-5.55,2.38-1.42,4.81-2.14,7.29-2.14,3.5,0,6.19.89,8.06,2.68,1.87,1.79,2.8,4.36,2.8,7.73,0,1.86-.12,3.96-.35,6.29-.19,2.49-.28,4.32-.28,5.51,0,1.92.19,3.43.56,4.54.37,1.11,1.1,2.32,2.17,3.61-2.38,1.66-4.98,2.64-7.78,2.95-1.26-.88-2.22-2.12-2.87-3.73-1.64,1.14-3.32,2.05-5.05,2.72-1.73.67-3.29,1.01-4.7,1.01-2.29,0-4.03-.66-5.22-1.98ZM319.83,208.42v-.78c0-.62.02-1.31.07-2.06.05-.75.09-1.36.14-1.83l.21-2.56c-2.34.26-4.11.87-5.33,1.83-1.22.96-1.82,2.21-1.82,3.77,0,.73.15,1.45.46,2.17.3.73.69,1.27,1.16,1.63,1.73-.26,3.43-.98,5.12-2.17Z"/>
      <path class="cls-2" d="M373.84,214.94c-3.57-.1-7.37-.16-11.39-.16-4.81,0-8.55.08-11.21.23v-3.57c13.13-11.13,19.7-20.09,19.7-26.88,0-1.4-.32-2.51-.95-3.34-.63-.83-1.55-1.35-2.77-1.55-1.5.21-3.35.93-5.57,2.17-2.22,1.24-4.48,2.85-6.76,4.82-.84-1.14-1.58-2.76-2.21-4.85s-.95-3.95-.95-5.55c1.78-.83,3.93-1.48,6.45-1.94,2.52-.47,5.21-.7,8.06-.7,4.35,0,7.8.93,10.37,2.8,2.57,1.86,3.85,4.38,3.85,7.53,0,6.78-5.49,14.19-16.47,22.21,2.06.21,3.74.31,5.05.31,2.52,0,4.99-.18,7.4-.54,2.41-.36,4.33-.85,5.78-1.48,0,2.02-.14,4.13-.42,6.33-.28,2.2-.61,3.74-.98,4.62-1.08-.21-3.4-.36-6.97-.47Z"/>
      <path class="cls-2" d="M394.86,213.35c-2.59-1.68-4.6-4.06-6.03-7.15-1.43-3.08-2.14-6.61-2.14-10.6,0-4.25.86-8.04,2.59-11.38,1.73-3.34,4.15-5.94,7.25-7.81,3.11-1.86,6.62-2.8,10.55-2.8,3.27,0,6.16.83,8.66,2.49,2.5,1.66,4.44,3.97,5.82,6.95,1.38,2.98,2.07,6.44,2.07,10.37,0,4.35-.84,8.23-2.52,11.65-1.68,3.42-4.03,6.07-7.04,7.96-3.01,1.89-6.44,2.83-10.27,2.83-3.36,0-6.34-.84-8.94-2.52ZM411.83,204.07c1.71-2.49,2.56-5.88,2.56-10.18,0-3.99-.75-7.27-2.24-9.86-1.5-2.59-3.55-4.19-6.17-4.82-1.92,0-3.64.61-5.19,1.83-1.54,1.22-2.75,2.91-3.61,5.09-.87,2.17-1.3,4.61-1.3,7.3,0,4.3.83,7.77,2.49,10.41,1.66,2.64,3.84,3.96,6.55,3.96,2.9,0,5.2-1.24,6.9-3.73Z"/>
      <path class="cls-2" d="M450.73,214.94c-3.57-.1-7.37-.16-11.39-.16-4.81,0-8.55.08-11.21.23v-3.57c13.13-11.13,19.7-20.09,19.7-26.88,0-1.4-.32-2.51-.95-3.34-.63-.83-1.55-1.35-2.77-1.55-1.5.21-3.35.93-5.57,2.17-2.22,1.24-4.48,2.85-6.76,4.82-.84-1.14-1.58-2.76-2.21-4.85s-.95-3.95-.95-5.55c1.78-.83,3.93-1.48,6.45-1.94,2.52-.47,5.21-.7,8.06-.7,4.35,0,7.8.93,10.37,2.8,2.57,1.86,3.85,4.38,3.85,7.53,0,6.78-5.49,14.19-16.47,22.21,2.06.21,3.74.31,5.05.31,2.52,0,4.99-.18,7.4-.54,2.41-.36,4.33-.85,5.78-1.48,0,2.02-.14,4.13-.42,6.33-.28,2.2-.61,3.74-.98,4.62-1.08-.21-3.4-.36-6.97-.47Z"/>
      <path class="cls-2" d="M463.94,212.3c0-2.17.42-4.5,1.26-6.99,1.12,1.45,2.65,2.6,4.59,3.46,1.94.85,4.05,1.28,6.34,1.28,2.57,0,4.57-.65,5.99-1.94,1.42-1.29,2.14-3.11,2.14-5.44,0-1.66-.39-3.12-1.16-4.39-.77-1.27-1.88-2.21-3.33-2.83-.84,0-1.72.32-2.63.97-.91.65-1.69,1.49-2.35,2.52-.7,0-1.47-.26-2.31-.78-.84-.52-1.26-.98-1.26-1.4.33-1.45,1.35-2.85,3.08-4.19l10.72-8.78c-4.02-.1-7.45-.16-10.3-.16-1.92,0-3.46.1-4.63.31-1.17.21-2.15.57-2.94,1.09-.61-1.45-1.1-3.18-1.47-5.2-.37-2.02-.56-3.93-.56-5.75,2.06.57,5.86.85,11.43.85,3.5,0,6.33-.18,8.48-.54,2.15-.36,3.9-.96,5.26-1.79.75.62,1.34,1.45,1.79,2.49.44,1.04.67,2.12.67,3.26,0,1.61-.47,3.15-1.4,4.62-.94,1.48-2.43,3.04-4.49,4.7l-3.86,3.19c3.18.47,5.78,1.8,7.82,4,2.03,2.2,3.05,4.8,3.05,7.81,0,4.3-1.43,7.57-4.28,9.83-2.85,2.25-6.99,3.38-12.41,3.38-5.05,0-9.46-1.19-13.25-3.57Z"/>
      <path class="cls-2" d="M498.42,221.08c1.92-7.66,4.16-17.59,6.73-29.79,2.57-12.19,3.93-19.95,4.07-23.26,1.5-.47,2.83-.7,4-.7.7,0,1.85.23,3.43.7-2.01,8.18-4.28,18.24-6.8,30.18-2.52,11.94-3.85,19.56-4,22.88-1.5.47-2.8.7-3.93.7-.75,0-1.92-.23-3.5-.7Z"/>
      <path class="cls-2" d="M544.16,214.94c-3.57-.1-7.37-.16-11.39-.16-4.81,0-8.55.08-11.21.23v-3.57c13.13-11.13,19.7-20.09,19.7-26.88,0-1.4-.32-2.51-.95-3.34-.63-.83-1.55-1.35-2.77-1.55-1.5.21-3.35.93-5.57,2.17-2.22,1.24-4.48,2.85-6.76,4.82-.84-1.14-1.58-2.76-2.21-4.85s-.95-3.95-.95-5.55c1.78-.83,3.93-1.48,6.45-1.94,2.52-.47,5.21-.7,8.06-.7,4.35,0,7.8.93,10.37,2.8,2.57,1.86,3.85,4.38,3.85,7.53,0,6.78-5.49,14.19-16.47,22.21,2.06.21,3.74.31,5.05.31,2.52,0,4.99-.18,7.4-.54,2.41-.36,4.33-.85,5.78-1.48,0,2.02-.14,4.13-.42,6.33-.28,2.2-.61,3.74-.98,4.62-1.08-.21-3.4-.36-6.97-.47Z"/>
      <path class="cls-2" d="M574.12,215.02c.23-1.92.44-4.74.63-8.47h-3.36c-3.46,0-6.23.12-8.31.35-2.08.23-3.75.63-5.01,1.2-1.4-1.19-2.1-2.82-2.1-4.89,0-2.18.58-4.43,1.75-6.76,4.72-9.06,9.02-17.01,12.9-23.85,2.2,0,4.12.18,5.78.54,1.66.36,3.26.98,4.8,1.86-2.06,1.97-4.62,4.96-7.68,8.97-3.06,4.01-6.32,8.84-9.78,14.49,4.39.1,8.11.16,11.14.16-.05-2.49-.16-4.47-.35-5.94-.19-1.48-.44-2.91-.77-4.31,1.59-.31,3.25-.47,4.98-.47s3.57.16,5.68.47c-.33,2.75-.56,6.06-.7,9.94,2.2-.26,3.85-.62,4.98-1.09,0,1.61-.18,3.35-.53,5.24-.35,1.89-.83,3.53-1.44,4.93l-3.01-.39c.19,3.26.54,5.93,1.05,8-1.59.31-3.22.47-4.91.47s-3.55-.16-5.75-.47Z"/>
      <path class="cls-2" d="M611.31,211.88c-1.99-2.72-2.98-6.72-2.98-12,0-5.7,1.03-10.01,3.08-12.93,2.06-2.92,5.09-4.39,9.11-4.39,2.85,0,5.42.83,7.71,2.49-.19-4.71-.61-8.36-1.26-10.95,2.76-1.04,6.28-1.55,10.58-1.55-.56,5.85-.84,15.74-.84,29.67,0,2.38.19,4.26.56,5.63.37,1.37,1.1,2.86,2.17,4.47-1.17.93-2.49,1.71-3.96,2.33-1.47.62-2.96,1.04-4.45,1.24-1.17-.98-1.99-2.23-2.45-3.73-1.26,1.19-2.63,2.12-4.1,2.8-1.47.67-2.91,1.01-4.31,1.01-3.93,0-6.88-1.36-8.87-4.08ZM628.02,207.88c0-1.66.05-4.19.14-7.61.09-3.42.14-6.03.14-7.85-1.5-.78-2.94-1.17-4.35-1.17-4.35,0-6.52,3.24-6.52,9.71,0,2.59.47,4.75,1.4,6.49.93,1.74,2.2,2.78,3.79,3.15,1.82-.26,3.62-1.17,5.4-2.72Z"/>
      <path class="cls-2" d="M644.46,213.9c-1.19-1.32-1.79-3.09-1.79-5.32,0-3.31,1.35-5.89,4.07-7.73,2.71-1.84,6.84-3.02,12.41-3.53-.14-1.92-.63-3.29-1.47-4.12-.84-.83-2.17-1.24-4-1.24-1.64,0-3.27.26-4.91.78-1.64.52-3.04,1.22-4.21,2.1l-.56-4.58c1.5-2.28,3.43-4.13,5.82-5.55,2.38-1.42,4.81-2.14,7.29-2.14,3.5,0,6.19.89,8.06,2.68,1.87,1.79,2.8,4.36,2.8,7.73,0,1.86-.12,3.96-.35,6.29-.19,2.49-.28,4.32-.28,5.51,0,1.92.19,3.43.56,4.54.37,1.11,1.1,2.32,2.17,3.61-2.38,1.66-4.98,2.64-7.78,2.95-1.26-.88-2.22-2.12-2.87-3.73-1.64,1.14-3.32,2.05-5.05,2.72-1.73.67-3.29,1.01-4.7,1.01-2.29,0-4.03-.66-5.22-1.98ZM658.65,208.42v-.78c0-.62.02-1.31.07-2.06.05-.75.09-1.36.14-1.83l.21-2.56c-2.34.26-4.11.87-5.33,1.83-1.22.96-1.82,2.21-1.82,3.77,0,.73.15,1.45.46,2.17.3.73.69,1.27,1.16,1.63,1.73-.26,3.43-.98,5.12-2.17Z"/>
      <path class="cls-2" d="M691.18,215.02c.23-2.49.42-5.83.56-10.02.14-4.19.21-8.05.21-11.57,0-5.28-.08-9.27-.25-11.96-.16-2.69-.46-5.15-.88-7.38,3.08.36,7.17.54,12.27.54,6.35,0,10.93-.18,13.74-.54,0,2.02-.14,4.07-.42,6.14-.28,2.07-.63,3.42-1.05,4.04-.98-.67-2.29-1.19-3.93-1.55-1.64-.36-3.36-.54-5.19-.54s-3.58.13-5.54.39c-.09,2.18-.14,5.13-.14,8.85,1.4.1,2.57.16,3.5.16,2.06,0,3.69-.06,4.91-.19,1.21-.13,2.62-.35,4.21-.66.19,1.4.28,2.62.28,3.65,0,1.09-.09,2.33-.28,3.73-5.23-.36-9.39-.54-12.48-.54,0,9.48.37,15.3,1.12,17.48-1.59.31-3.25.47-4.98.47s-3.57-.16-5.68-.47Z"/>
      <path class="cls-2" d="M726.64,213.9c-2.15-1.32-3.81-3.17-4.98-5.55-1.17-2.38-1.75-5.13-1.75-8.23,0-3.42.7-6.46,2.1-9.13,1.4-2.67,3.36-4.74,5.89-6.21,2.52-1.48,5.4-2.21,8.62-2.21,2.9,0,5.46.66,7.68,1.98,2.22,1.32,3.94,3.17,5.15,5.55,1.21,2.38,1.82,5.13,1.82,8.23,0,3.42-.73,6.46-2.17,9.13-1.45,2.67-3.47,4.74-6.06,6.21-2.59,1.48-5.55,2.21-8.87,2.21-2.8,0-5.28-.66-7.43-1.98ZM728.4,176.65c1.82-.88,3.43-2.32,4.84-4.31,1.4-1.99,2.2-3.95,2.38-5.86,2.06,0,3.85.38,5.4,1.13,1.54.75,2.71,1.85,3.5,3.3-1.54,2.07-3.75,3.87-6.62,5.4-2.87,1.53-5.78,2.52-8.73,2.99l-.77-2.64ZM740.52,208.58c1.26-1.66,1.89-3.96,1.89-6.91,0-2.54-.56-4.74-1.68-6.6-1.12-1.86-2.64-3.13-4.56-3.81-2.29,0-4.11.88-5.47,2.64-1.36,1.76-2.03,4.14-2.03,7.15s.62,5.43,1.86,7.26c1.24,1.84,2.84,2.76,4.8,2.76,2.2,0,3.92-.83,5.19-2.49Z"/>
      <path class="cls-2" d="M758.05,215.02c.33-5.18.49-10.69.49-16.54,0-2.85-.08-5.02-.25-6.52-.16-1.5-.42-2.69-.77-3.57-.35-.88-.92-1.79-1.72-2.72.98-.98,2.04-1.7,3.19-2.14,1.14-.44,2.16-.66,3.05-.66,3.46,0,5.33,1.86,5.61,5.59,1.12-1.6,2.31-2.92,3.57-3.96,1.26-1.04,2.71-1.81,4.35-2.33.33,1.19.62,2.86.88,5.01.26,2.15.39,4.13.39,5.94-.84-.16-1.64-.23-2.38-.23-1.4,0-2.71.19-3.93.58-1.22.39-2.22.89-3.01,1.51-.09,3.31-.14,6.11-.14,8.39,0,5.44.47,9.32,1.4,11.65-1.31.31-3.06.47-5.26.47-1.54,0-3.36-.16-5.47-.47Z"/>
      <path class="cls-2" d="M782.44,215.02c.33-5.18.49-10.69.49-16.54,0-2.85-.08-5.02-.25-6.52-.16-1.5-.42-2.69-.77-3.57-.35-.88-.92-1.79-1.72-2.72,1.07-.98,2.23-1.7,3.47-2.14,1.24-.44,2.35-.66,3.33-.66,2.76,0,4.39,1.48,4.91,4.43,1.12-1.5,2.41-2.67,3.86-3.5,1.45-.83,2.99-1.24,4.63-1.24,4.21,0,6.92,1.84,8.13,5.52,1.12-1.76,2.46-3.12,4.03-4.08,1.56-.96,3.24-1.44,5.01-1.44,5.89,0,8.83,3.57,8.83,10.72l-.14,4.89-.14,5.2c0,5.44.47,9.32,1.4,11.65-1.31.31-3.25.47-5.82.47-1.64,0-3.27-.16-4.91-.47.33-5.28.49-11.03.49-17.24,0-2.07-.33-3.56-.98-4.47-.65-.91-1.71-1.36-3.15-1.36s-2.83.44-4,1.32c0,.93-.05,2.75-.14,5.44l-.07,4.66c0,5.44.47,9.32,1.4,11.65-1.31.31-3.25.47-5.82.47-1.64,0-3.27-.16-4.91-.47.33-5.28.49-11.03.49-17.24,0-2.07-.33-3.56-.98-4.47-.65-.91-1.71-1.36-3.15-1.36-1.59,0-2.92.47-4,1.4-.14,2.8-.21,6.14-.21,10.02,0,5.44.47,9.32,1.4,11.65-1.31.31-2.87.47-4.7.47-2.38,0-4.39-.16-6.03-.47Z"/>
      <path class="cls-2" d="M834.03,205.16l.14-4.89.14-5.2c0-5.07-.44-8.7-1.33-10.87,3.08-1.04,6.61-1.55,10.58-1.55-.28,4.09-.42,10.56-.42,19.42,0,1.92.28,3.26.84,4.04.56.78,1.47,1.17,2.73,1.17,1.82,0,3.43-.54,4.84-1.63.09-3.11.14-5.23.14-6.37l.14-4.19c0-5.07-.44-8.7-1.33-10.87,3.08-1.04,6.61-1.55,10.58-1.55-.19,3.21-.37,7.02-.56,11.42-.19,4.4-.28,7.33-.28,8.78,0,2.28.19,4.07.56,5.36.37,1.29,1.1,2.67,2.17,4.12-2.52,1.97-5.33,3.16-8.41,3.57-1.31-1.04-2.22-2.56-2.73-4.58-1.17,1.45-2.55,2.58-4.14,3.38-1.59.8-3.2,1.2-4.84,1.2-5.89,0-8.83-3.57-8.83-10.72Z"/>
      <path class="cls-2" d="M869.53,214.32c-.77-.93-1.16-2.59-1.16-4.97,0-1.6.05-4.17.14-7.69.09-3.93.14-7.17.14-9.71,0-8.34-.44-14.29-1.33-17.87,1.78-.57,3.48-.97,5.12-1.2,1.63-.23,3.46-.35,5.47-.35-.56,5.49-.84,14.68-.84,27.57,0,2.85.08,5.02.25,6.52.16,1.5.42,2.69.77,3.57.35.88.92,1.79,1.72,2.72-.98.98-2.04,1.7-3.19,2.14-1.15.44-2.16.66-3.05.66-1.92,0-3.26-.47-4.03-1.4Z"/>
      <path class="cls-2" d="M884.67,213.9c-1.19-1.32-1.79-3.09-1.79-5.32,0-3.31,1.35-5.89,4.07-7.73,2.71-1.84,6.84-3.02,12.41-3.53-.14-1.92-.63-3.29-1.47-4.12-.84-.83-2.17-1.24-4-1.24-1.64,0-3.27.26-4.91.78-1.64.52-3.04,1.22-4.21,2.1l-.56-4.58c1.5-2.28,3.43-4.13,5.82-5.55,2.38-1.42,4.81-2.14,7.29-2.14,3.5,0,6.19.89,8.06,2.68,1.87,1.79,2.8,4.36,2.8,7.73,0,1.86-.12,3.96-.35,6.29-.19,2.49-.28,4.32-.28,5.51,0,1.92.19,3.43.56,4.54.37,1.11,1.1,2.32,2.17,3.61-2.38,1.66-4.98,2.64-7.78,2.95-1.26-.88-2.22-2.12-2.87-3.73-1.64,1.14-3.32,2.05-5.05,2.72-1.73.67-3.29,1.01-4.7,1.01-2.29,0-4.03-.66-5.22-1.98ZM898.86,208.42v-.78c0-.62.02-1.31.07-2.06.05-.75.09-1.36.14-1.83l.21-2.56c-2.34.26-4.11.87-5.33,1.83-1.22.96-1.82,2.21-1.82,3.77,0,.73.15,1.45.46,2.17.3.73.69,1.27,1.16,1.63,1.73-.26,3.43-.98,5.12-2.17Z"/>
      <path class="cls-2" d="M932.15,191.72c0-4.82-.08-8.47-.25-10.95-.16-2.49-.46-4.71-.88-6.68,2.62.36,6.71.54,12.27.54,6.54,0,11.59-.18,15.14-.54,0,1.86-.14,3.84-.42,5.94-.28,2.1-.63,3.51-1.05,4.23-1.22-.67-2.78-1.19-4.7-1.55-1.92-.36-3.85-.54-5.82-.54-1.68,0-3.41.13-5.19.39-.19,3.73-.28,6.68-.28,8.85,1.77.1,3.11.16,4,.16,2.38,0,4.22-.06,5.5-.19,1.28-.13,2.72-.35,4.31-.66.19,1.55.28,2.77.28,3.65,0,.83-.09,2.07-.28,3.73-5.89-.36-10.51-.54-13.88-.54,0,3.47.07,6.5.21,9.09,1.63.36,3.53.54,5.68.54s4.38-.18,6.55-.54c2.17-.36,3.96-.88,5.36-1.55,0,1.81-.14,3.77-.42,5.86-.28,2.1-.63,3.53-1.05,4.31-3.22-.36-7.76-.54-13.6-.54s-9.65.18-12.27.54c.51-7.2.77-15.04.77-23.54Z"/>
      <path class="cls-2" d="M961.94,221.94c.79-1.04,1.4-2.28,1.82-3.73.42-1.45.63-2.95.63-4.5,0-2.85-.42-5.31-1.26-7.38,1.12-.78,2.39-1.38,3.82-1.83,1.42-.44,2.81-.66,4.17-.66l2.1,2.49c-.23,3.47-1.15,6.73-2.73,9.79-1.59,3.05-3.76,5.8-6.52,8.23l-2.03-2.41Z"/>
      <path class="cls-2" d="M998.95,214.01c-.94-1.14-1.4-3.13-1.4-5.98,0-1.55.05-3.93.14-7.15.09-3.62.14-6.6.14-8.93,0-.72-.05-1.4-.14-2.02-2.01,0-3.35-.23-4.03-.7-.68-.47-1.02-1.4-1.02-2.8,3.36-1.81,6.7-4.43,10.02-7.84l3.78.23c.19,1.76.3,3.57.35,5.44,3.13-.05,5.42-.26,6.87-.62,0,1.4-.09,2.64-.28,3.73-.19,1.09-.49,2.17-.91,3.26-1.36-.57-3.29-.88-5.82-.93-.14,1.86-.21,3.78-.21,5.75,0,5.39.26,9.66.77,12.82,1.82-.05,3.65-.28,5.47-.7l.42,3.34c-.98,1.45-2.35,2.62-4.1,3.5s-3.52,1.32-5.29,1.32c-2.24,0-3.83-.57-4.77-1.71Z"/>
      <path class="cls-2" d="M1019.91,211.8c-2.29-2.72-3.43-6.59-3.43-11.61,0-3.42.68-6.46,2.03-9.13,1.35-2.67,3.26-4.75,5.71-6.25,2.45-1.5,5.24-2.25,8.38-2.25,4.11,0,7.22,1.43,9.32,4.27,2.1,2.85,3.15,7.04,3.15,12.58-2.62.67-5.65,1.26-9.11,1.75-3.46.49-6.85.76-10.16.82.37,1.86,1.12,3.24,2.24,4.12,1.12.88,2.66,1.32,4.63,1.32s3.9-.26,5.68-.78c1.78-.52,3.32-1.27,4.63-2.25l1.05,4.58c-1.54,2.07-3.62,3.74-6.24,5.01-2.62,1.27-5.28,1.9-7.99,1.9-4.3,0-7.59-1.36-9.88-4.08ZM1030.88,196.92c1.8-.47,3.31-1.01,4.52-1.63-.09-2.17-.71-3.99-1.86-5.44-1.15-1.45-2.56-2.18-4.24-2.18-1.17.88-2.1,2.25-2.8,4.12-.7,1.86-1.08,3.94-1.12,6.21,1.87-.26,3.7-.62,5.5-1.09Z"/>
      <path class="cls-2" d="M1052.29,215.02c.33-5.18.49-10.69.49-16.54,0-2.85-.08-5.02-.25-6.52-.16-1.5-.42-2.69-.77-3.57-.35-.88-.92-1.79-1.72-2.72,1.07-.98,2.23-1.7,3.47-2.14,1.24-.44,2.35-.66,3.33-.66,2.76,0,4.39,1.48,4.91,4.43,1.12-1.5,2.41-2.67,3.86-3.5,1.45-.83,2.99-1.24,4.63-1.24,4.21,0,6.92,1.84,8.13,5.52,1.12-1.76,2.46-3.12,4.03-4.08,1.56-.96,3.24-1.44,5.01-1.44,5.89,0,8.83,3.57,8.83,10.72l-.14,4.89-.14,5.2c0,5.44.47,9.32,1.4,11.65-1.31.31-3.25.47-5.82.47-1.64,0-3.27-.16-4.91-.47.33-5.28.49-11.03.49-17.24,0-2.07-.33-3.56-.98-4.47-.65-.91-1.71-1.36-3.15-1.36s-2.83.44-4,1.32c0,.93-.05,2.75-.14,5.44l-.07,4.66c0,5.44.47,9.32,1.4,11.65-1.31.31-3.25.47-5.82.47-1.64,0-3.27-.16-4.91-.47.33-5.28.49-11.03.49-17.24,0-2.07-.33-3.56-.98-4.47-.65-.91-1.71-1.36-3.15-1.36-1.59,0-2.92.47-4,1.4-.14,2.8-.21,6.14-.21,10.02,0,5.44.47,9.32,1.4,11.65-1.31.31-2.87.47-4.7.47-2.38,0-4.39-.16-6.03-.47Z"/>
      <path class="cls-2" d="M1104.89,216.19c.16-5.54.25-11.44.25-17.71,0-2.85-.08-5.02-.25-6.52-.16-1.5-.42-2.69-.77-3.57-.35-.88-.92-1.79-1.72-2.72.98-.98,2.04-1.7,3.19-2.14,1.14-.44,2.16-.66,3.05-.66,2.76,0,4.44,1.35,5.05,4.04,1.21-1.24,2.6-2.21,4.17-2.91,1.56-.7,3.21-1.05,4.94-1.05,3.65,0,6.46,1.33,8.45,4,1.99,2.67,2.98,6.54,2.98,11.61,0,5.39-1.4,9.59-4.21,12.62s-6.71,4.54-11.71,4.54c-1.68,0-3.22-.23-4.63-.7.23,5.64.63,9.79,1.19,12.43-3.08,1.04-6.61,1.55-10.58,1.55.23-3,.43-7.28.6-12.82ZM1122.94,208.3c1.17-1.68,1.75-4.03,1.75-7.03,0-2.38-.44-4.44-1.33-6.18-.89-1.73-2.15-3.02-3.79-3.84-2.01,0-3.93.6-5.75,1.79-.19,4.76-.28,9.19-.28,13.28v2.25c1.26,1.5,2.78,2.25,4.56,2.25,2.06,0,3.67-.84,4.84-2.52Z"/>
      <path class="cls-2" d="M1145.09,213.9c-2.15-1.32-3.81-3.17-4.98-5.55-1.17-2.38-1.75-5.13-1.75-8.23,0-3.42.7-6.46,2.1-9.13,1.4-2.67,3.36-4.74,5.89-6.21,2.52-1.48,5.4-2.21,8.62-2.21,2.9,0,5.46.66,7.68,1.98,2.22,1.32,3.94,3.17,5.15,5.55,1.21,2.38,1.82,5.13,1.82,8.23,0,3.42-.72,6.46-2.17,9.13-1.45,2.67-3.47,4.74-6.06,6.21-2.59,1.48-5.55,2.21-8.87,2.21-2.8,0-5.28-.66-7.43-1.98ZM1158.97,208.58c1.26-1.66,1.89-3.96,1.89-6.91,0-2.54-.56-4.74-1.68-6.6-1.12-1.86-2.64-3.13-4.56-3.81-2.29,0-4.11.88-5.47,2.64-1.36,1.76-2.03,4.14-2.03,7.15s.62,5.43,1.86,7.26c1.24,1.84,2.84,2.76,4.8,2.76,2.2,0,3.93-.83,5.19-2.49Z"/>
      <path class="cls-2" d="M1176.56,215.02c.33-5.18.49-10.69.49-16.54,0-2.85-.08-5.02-.25-6.52-.16-1.5-.42-2.69-.77-3.57-.35-.88-.92-1.79-1.72-2.72.98-.98,2.04-1.7,3.19-2.14,1.14-.44,2.16-.66,3.05-.66,3.46,0,5.33,1.86,5.61,5.59,1.12-1.6,2.31-2.92,3.57-3.96,1.26-1.04,2.71-1.81,4.35-2.33.33,1.19.62,2.86.88,5.01.26,2.15.39,4.13.39,5.94-.84-.16-1.64-.23-2.38-.23-1.4,0-2.71.19-3.93.58-1.22.39-2.22.89-3.01,1.51-.09,3.31-.14,6.11-.14,8.39,0,5.44.47,9.32,1.4,11.65-1.31.31-3.06.47-5.26.47-1.54,0-3.36-.16-5.47-.47Z"/>
      <path class="cls-2" d="M1199.38,213.9c-1.19-1.32-1.79-3.09-1.79-5.32,0-3.31,1.35-5.89,4.07-7.73,2.71-1.84,6.84-3.02,12.41-3.53-.14-1.92-.63-3.29-1.47-4.12-.84-.83-2.17-1.24-4-1.24-1.64,0-3.27.26-4.91.78-1.64.52-3.04,1.22-4.21,2.1l-.56-4.58c1.5-2.28,3.43-4.13,5.82-5.55,2.38-1.42,4.81-2.14,7.29-2.14,3.5,0,6.19.89,8.06,2.68,1.87,1.79,2.8,4.36,2.8,7.73,0,1.86-.12,3.96-.35,6.29-.19,2.49-.28,4.32-.28,5.51,0,1.92.19,3.43.56,4.54.37,1.11,1.1,2.32,2.17,3.61-2.38,1.66-4.98,2.64-7.78,2.95-1.26-.88-2.22-2.12-2.87-3.73-1.64,1.14-3.32,2.05-5.05,2.72-1.73.67-3.29,1.01-4.7,1.01-2.29,0-4.03-.66-5.22-1.98ZM1213.57,208.42v-.78c0-.62.02-1.31.07-2.06.05-.75.09-1.36.14-1.83l.21-2.56c-2.34.26-4.11.87-5.33,1.83-1.22.96-1.82,2.21-1.82,3.77,0,.73.15,1.45.46,2.17.3.73.69,1.27,1.16,1.63,1.73-.26,3.43-.98,5.12-2.17Z"/>
      <path class="cls-2" d="M1231.9,211.88c-1.99-2.72-2.98-6.72-2.98-12,0-5.7,1.03-10.01,3.08-12.93,2.06-2.92,5.09-4.39,9.11-4.39,2.85,0,5.42.83,7.71,2.49-.19-4.71-.61-8.36-1.26-10.95,2.76-1.04,6.28-1.55,10.58-1.55-.56,5.85-.84,15.74-.84,29.67,0,2.38.19,4.26.56,5.63.37,1.37,1.1,2.86,2.17,4.47-1.17.93-2.49,1.71-3.96,2.33-1.47.62-2.96,1.04-4.45,1.24-1.17-.98-1.99-2.23-2.45-3.73-1.26,1.19-2.63,2.12-4.1,2.8-1.47.67-2.91,1.01-4.31,1.01-3.93,0-6.88-1.36-8.87-4.08ZM1248.62,207.88c0-1.66.05-4.19.14-7.61.09-3.42.14-6.03.14-7.85-1.5-.78-2.94-1.17-4.35-1.17-4.35,0-6.52,3.24-6.52,9.71,0,2.59.47,4.75,1.4,6.49.93,1.74,2.2,2.78,3.79,3.15,1.82-.26,3.62-1.17,5.4-2.72Z"/>
      <path class="cls-2" d="M1265.05,213.9c-1.19-1.32-1.79-3.09-1.79-5.32,0-3.31,1.35-5.89,4.07-7.73,2.71-1.84,6.84-3.02,12.41-3.53-.14-1.92-.63-3.29-1.47-4.12-.84-.83-2.17-1.24-4-1.24-1.64,0-3.27.26-4.91.78-1.64.52-3.04,1.22-4.21,2.1l-.56-4.58c1.5-2.28,3.43-4.13,5.82-5.55,2.38-1.42,4.81-2.14,7.29-2.14,3.5,0,6.19.89,8.06,2.68,1.87,1.79,2.8,4.36,2.8,7.73,0,1.86-.12,3.96-.35,6.29-.19,2.49-.28,4.32-.28,5.51,0,1.92.19,3.43.56,4.54.37,1.11,1.1,2.32,2.17,3.61-2.38,1.66-4.98,2.64-7.78,2.95-1.26-.88-2.22-2.12-2.87-3.73-1.64,1.14-3.32,2.05-5.05,2.72-1.73.67-3.29,1.01-4.7,1.01-2.29,0-4.03-.66-5.22-1.98ZM1279.25,208.42v-.78c0-.62.02-1.31.07-2.06.05-.75.09-1.36.14-1.83l.21-2.56c-2.34.26-4.11.87-5.33,1.83-1.22.96-1.82,2.21-1.82,3.77,0,.73.15,1.45.46,2.17.3.73.69,1.27,1.16,1.63,1.73-.26,3.43-.98,5.12-2.17Z"/>
      <path class="cls-2" d="M1318.64,215.02c.23-2.9.42-6.5.56-10.8.14-4.3.21-8.26.21-11.88,0-2.69-.02-4.63-.07-5.83l-7.5,5.28c-1.26-1.92-2.38-4.38-3.36-7.38,1.59-.83,3.79-2.12,6.59-3.88l1.4-.85c1.5-.93,2.96-1.99,4.38-3.18,1.42-1.19,2.42-2.15,2.98-2.87,1.5,0,3.22.16,5.19.47-.23,2.69-.42,6.29-.56,10.8-.14,4.5-.21,8.67-.21,12.51,0,9.58.37,15.46,1.12,17.63-1.68.31-3.34.47-4.98.47s-3.55-.16-5.75-.47Z"/>
      <path class="cls-2" d="M1342.44,213.35c-2.59-1.68-4.6-4.06-6.03-7.15-1.43-3.08-2.14-6.61-2.14-10.6,0-4.25.86-8.04,2.59-11.38,1.73-3.34,4.15-5.94,7.25-7.81,3.11-1.86,6.62-2.8,10.55-2.8,3.27,0,6.16.83,8.66,2.49,2.5,1.66,4.44,3.97,5.82,6.95,1.38,2.98,2.07,6.44,2.07,10.37,0,4.35-.84,8.23-2.52,11.65-1.68,3.42-4.03,6.07-7.04,7.96-3.01,1.89-6.44,2.83-10.27,2.83-3.36,0-6.34-.84-8.94-2.52ZM1359.4,204.07c1.71-2.49,2.56-5.88,2.56-10.18,0-3.99-.75-7.27-2.24-9.86-1.5-2.59-3.55-4.19-6.17-4.82-1.92,0-3.64.61-5.19,1.83-1.54,1.22-2.75,2.91-3.61,5.09-.87,2.17-1.3,4.61-1.3,7.3,0,4.3.83,7.77,2.49,10.41,1.66,2.64,3.84,3.96,6.55,3.96,2.9,0,5.2-1.24,6.9-3.73Z"/>
      <path class="cls-2" d="M1374.36,221.94c.79-1.04,1.4-2.28,1.82-3.73.42-1.45.63-2.95.63-4.5,0-2.85-.42-5.31-1.26-7.38,1.12-.78,2.39-1.38,3.82-1.83,1.42-.44,2.81-.66,4.17-.66l2.1,2.49c-.23,3.47-1.15,6.73-2.73,9.79-1.59,3.05-3.76,5.8-6.52,8.23l-2.03-2.41Z"/>
      <path class="cls-2" d="M1409.2,211.8c-2.29-2.72-3.43-6.59-3.43-11.61,0-3.42.68-6.46,2.03-9.13,1.35-2.67,3.26-4.75,5.71-6.25,2.45-1.5,5.25-2.25,8.38-2.25,4.11,0,7.22,1.43,9.32,4.27,2.1,2.85,3.15,7.04,3.15,12.58-2.62.67-5.65,1.26-9.11,1.75-3.46.49-6.85.76-10.16.82.37,1.86,1.12,3.24,2.24,4.12,1.12.88,2.66,1.32,4.63,1.32s3.9-.26,5.68-.78c1.78-.52,3.32-1.27,4.63-2.25l1.05,4.58c-1.54,2.07-3.62,3.74-6.24,5.01-2.62,1.27-5.28,1.9-7.99,1.9-4.3,0-7.59-1.36-9.88-4.08ZM1420.17,196.92c1.8-.47,3.3-1.01,4.52-1.63-.09-2.17-.71-3.99-1.86-5.44-1.15-1.45-2.56-2.18-4.24-2.18-1.17.88-2.1,2.25-2.8,4.12-.7,1.86-1.08,3.94-1.12,6.21,1.87-.26,3.7-.62,5.5-1.09Z"/>
      <path class="cls-2" d="M1438.78,213.08c0-1.35.11-2.56.32-3.65s.55-2.28,1.02-3.57c.93,1.24,2.21,2.24,3.82,2.99,1.61.75,3.42,1.13,5.43,1.13,3.32,0,4.98-.85,4.98-2.56,0-.78-.37-1.4-1.12-1.86-.75-.47-2.01-1.09-3.79-1.86-2.06-.88-3.77-1.73-5.15-2.56-1.38-.83-2.57-1.99-3.57-3.5-1.01-1.5-1.51-3.37-1.51-5.59,0-2.9,1.13-5.2,3.4-6.91,2.27-1.71,5.29-2.56,9.08-2.56,1.96,0,3.95.17,5.96.5,2.01.34,3.74.79,5.19,1.36,0,1.29-.25,2.98-.74,5.05-.49,2.07-1.02,3.57-1.58,4.51-1.78-1.55-3.53-2.78-5.26-3.69-1.73-.91-3.22-1.36-4.49-1.36-.56.16-1.04.43-1.44.82-.4.39-.6.82-.6,1.28,0,.67.4,1.28,1.19,1.83.79.54,2.06,1.2,3.79,1.98,2.06.93,3.76,1.81,5.12,2.64,1.35.83,2.52,1.94,3.5,3.34.98,1.4,1.47,3.11,1.47,5.13,0,3.16-1.16,5.61-3.47,7.34-2.31,1.74-5.55,2.6-9.71,2.6-5,0-8.95-.93-11.85-2.8Z"/>
      <path class="cls-2" d="M1473.19,214.01c-.94-1.14-1.4-3.13-1.4-5.98,0-1.55.05-3.93.14-7.15.09-3.62.14-6.6.14-8.93,0-.72-.05-1.4-.14-2.02-2.01,0-3.35-.23-4.03-.7-.68-.47-1.02-1.4-1.02-2.8,3.36-1.81,6.71-4.43,10.02-7.84l3.79.23c.19,1.76.3,3.57.35,5.44,3.13-.05,5.42-.26,6.87-.62,0,1.4-.09,2.64-.28,3.73s-.49,2.17-.91,3.26c-1.36-.57-3.29-.88-5.82-.93-.14,1.86-.21,3.78-.21,5.75,0,5.39.26,9.66.77,12.82,1.82-.05,3.65-.28,5.47-.7l.42,3.34c-.98,1.45-2.35,2.62-4.1,3.5-1.75.88-3.52,1.32-5.29,1.32-2.24,0-3.83-.57-4.77-1.71Z"/>
      <path class="cls-2" d="M1492.15,213.9c-1.19-1.32-1.79-3.09-1.79-5.32,0-3.31,1.35-5.89,4.07-7.73,2.71-1.84,6.84-3.02,12.41-3.53-.14-1.92-.63-3.29-1.47-4.12-.84-.83-2.17-1.24-4-1.24-1.64,0-3.27.26-4.91.78-1.64.52-3.04,1.22-4.21,2.1l-.56-4.58c1.49-2.28,3.43-4.13,5.82-5.55,2.38-1.42,4.81-2.14,7.29-2.14,3.5,0,6.19.89,8.06,2.68,1.87,1.79,2.8,4.36,2.8,7.73,0,1.86-.12,3.96-.35,6.29-.19,2.49-.28,4.32-.28,5.51,0,1.92.19,3.43.56,4.54.37,1.11,1.1,2.32,2.17,3.61-2.38,1.66-4.98,2.64-7.78,2.95-1.26-.88-2.22-2.12-2.87-3.73-1.64,1.14-3.32,2.05-5.05,2.72-1.73.67-3.29,1.01-4.7,1.01-2.29,0-4.03-.66-5.22-1.98ZM1496.88,176.65c1.82-.88,3.43-2.32,4.84-4.31,1.4-1.99,2.2-3.95,2.38-5.86,2.06,0,3.85.38,5.4,1.13,1.54.75,2.71,1.85,3.5,3.3-1.54,2.07-3.75,3.87-6.62,5.4-2.87,1.53-5.78,2.52-8.73,2.99l-.77-2.64ZM1506.34,208.42v-.78c0-.62.02-1.31.07-2.06.05-.75.09-1.36.14-1.83l.21-2.56c-2.34.26-4.11.87-5.33,1.83-1.22.96-1.82,2.21-1.82,3.77,0,.73.15,1.45.46,2.17.3.73.69,1.27,1.16,1.63,1.73-.26,3.43-.98,5.12-2.17Z"/>
      <path class="cls-2" d="M1538.55,213.9c-1.19-1.32-1.79-3.09-1.79-5.32,0-3.31,1.35-5.89,4.07-7.73,2.71-1.84,6.84-3.02,12.41-3.53-.14-1.92-.63-3.29-1.47-4.12-.84-.83-2.17-1.24-4-1.24-1.64,0-3.27.26-4.91.78-1.64.52-3.04,1.22-4.21,2.1l-.56-4.58c1.49-2.28,3.43-4.13,5.82-5.55,2.38-1.42,4.81-2.14,7.29-2.14,3.5,0,6.19.89,8.06,2.68,1.87,1.79,2.8,4.36,2.8,7.73,0,1.86-.12,3.96-.35,6.29-.19,2.49-.28,4.32-.28,5.51,0,1.92.19,3.43.56,4.54.37,1.11,1.1,2.32,2.17,3.61-2.38,1.66-4.98,2.64-7.78,2.95-1.26-.88-2.22-2.12-2.87-3.73-1.64,1.14-3.32,2.05-5.05,2.72-1.73.67-3.29,1.01-4.7,1.01-2.29,0-4.03-.66-5.22-1.98ZM1552.75,208.42v-.78c0-.62.02-1.31.07-2.06.05-.75.09-1.36.14-1.83l.21-2.56c-2.34.26-4.11.87-5.33,1.83-1.22.96-1.82,2.21-1.82,3.77,0,.73.15,1.45.46,2.17.3.73.69,1.27,1.16,1.63,1.73-.26,3.43-.98,5.12-2.17Z"/>
      <path class="cls-2" d="M1588.42,212.07c-1.31,1.24-2.69,2.2-4.13,2.87-1.45.67-2.9,1.01-4.35,1.01-3.93,0-6.88-1.36-8.87-4.08-1.99-2.72-2.98-6.72-2.98-12,0-5.7,1.03-10.01,3.08-12.93,2.06-2.92,5.09-4.39,9.11-4.39,3.04,0,5.86,1.01,8.48,3.03.7-1.81,2.22-2.72,4.56-2.72.89,0,1.9.22,3.05.66,1.14.44,2.21,1.15,3.19,2.14-.79.93-1.37,1.84-1.72,2.72-.35.88-.61,2.07-.77,3.57-.17,1.5-.25,3.68-.25,6.52,0,6.37.08,12.27.25,17.71.16,5.44.36,9.32.6,11.65-2.94.78-6.47,1.17-10.58,1.17.75-3.63,1.19-9.27,1.33-16.93ZM1585.44,209.55c1.05-.59,2.04-1.36,2.98-2.29v-.93c0-3.78-.07-7.09-.21-9.94l-.07-3.96c-1.5-.78-2.97-1.17-4.42-1.17-4.35,0-6.52,3.24-6.52,9.71,0,2.59.47,4.75,1.4,6.49.93,1.74,2.2,2.78,3.79,3.15.98-.1,2-.45,3.05-1.05Z"/>
      <path class="cls-2" d="M1605.03,205.16l.14-4.89.14-5.2c0-5.07-.44-8.7-1.33-10.87,3.08-1.04,6.61-1.55,10.58-1.55-.28,4.09-.42,10.56-.42,19.42,0,1.92.28,3.26.84,4.04.56.78,1.47,1.17,2.73,1.17,1.82,0,3.43-.54,4.84-1.63.09-3.11.14-5.23.14-6.37l.14-4.19c0-5.07-.45-8.7-1.33-10.87,3.08-1.04,6.61-1.55,10.58-1.55-.19,3.21-.37,7.02-.56,11.42-.19,4.4-.28,7.33-.28,8.78,0,2.28.19,4.07.56,5.36.37,1.29,1.1,2.67,2.17,4.12-2.52,1.97-5.33,3.16-8.41,3.57-1.31-1.04-2.22-2.56-2.73-4.58-1.17,1.45-2.55,2.58-4.14,3.38-1.59.8-3.2,1.2-4.84,1.2-5.89,0-8.83-3.57-8.83-10.72Z"/>
      <path class="cls-2" d="M1638.82,172.92c1.87-2.43,3.76-4.56,5.68-6.37,1.73,2.33,3.65,4.45,5.75,6.37-1.73,2.33-3.64,4.45-5.75,6.37-1.68-2.23-3.57-4.35-5.68-6.37ZM1641.17,214.32c-.77-.93-1.16-2.59-1.16-4.97,0-1.92.05-4.63.14-8.16.09-3.31.14-5.75.14-7.3,0-2.07-.12-4.01-.35-5.83-.23-1.81-.56-3.11-.98-3.88,1.73-.57,3.41-.97,5.05-1.2,1.63-.23,3.46-.35,5.47-.35-.23,1.5-.43,3.82-.6,6.95-.16,3.13-.25,6.64-.25,10.52,0,2.85.08,5.02.25,6.52.16,1.5.42,2.69.77,3.57.35.88.92,1.79,1.72,2.72-.98.98-2.04,1.7-3.19,2.14-1.15.44-2.16.66-3.05.66-1.87,0-3.19-.47-3.96-1.4Z"/>
      <path class="cls-2" d="M1674.07,211.8c-2.29-2.72-3.43-6.59-3.43-11.61,0-3.42.68-6.46,2.03-9.13,1.35-2.67,3.26-4.75,5.71-6.25,2.45-1.5,5.25-2.25,8.38-2.25,4.11,0,7.22,1.43,9.32,4.27,2.1,2.85,3.15,7.04,3.15,12.58-2.62.67-5.65,1.26-9.11,1.75-3.46.49-6.85.76-10.16.82.37,1.86,1.12,3.24,2.24,4.12,1.12.88,2.66,1.32,4.63,1.32s3.9-.26,5.68-.78c1.78-.52,3.32-1.27,4.63-2.25l1.05,4.58c-1.54,2.07-3.62,3.74-6.24,5.01-2.62,1.27-5.28,1.9-7.99,1.9-4.3,0-7.59-1.36-9.88-4.08ZM1685.04,196.92c1.8-.47,3.3-1.01,4.52-1.63-.09-2.17-.71-3.99-1.86-5.44-1.15-1.45-2.56-2.18-4.24-2.18-1.17.88-2.1,2.25-2.8,4.12-.7,1.86-1.08,3.94-1.12,6.21,1.87-.26,3.7-.62,5.5-1.09Z"/>
      <path class="cls-2" d="M1720.65,213.9c-1.19-1.32-1.79-3.09-1.79-5.32,0-3.31,1.35-5.89,4.07-7.73,2.71-1.84,6.84-3.02,12.41-3.53-.14-1.92-.63-3.29-1.47-4.12-.84-.83-2.17-1.24-4-1.24-1.64,0-3.27.26-4.91.78-1.64.52-3.04,1.22-4.21,2.1l-.56-4.58c1.49-2.28,3.43-4.13,5.82-5.55,2.38-1.42,4.81-2.14,7.29-2.14,3.5,0,6.19.89,8.06,2.68,1.87,1.79,2.8,4.36,2.8,7.73,0,1.86-.12,3.96-.35,6.29-.19,2.49-.28,4.32-.28,5.51,0,1.92.19,3.43.56,4.54.37,1.11,1.1,2.32,2.17,3.61-2.38,1.66-4.98,2.64-7.78,2.95-1.26-.88-2.22-2.12-2.87-3.73-1.64,1.14-3.32,2.05-5.05,2.72-1.73.67-3.29,1.01-4.7,1.01-2.29,0-4.03-.66-5.22-1.98ZM1734.84,208.42v-.78c0-.62.02-1.31.07-2.06.05-.75.09-1.36.14-1.83l.21-2.56c-2.34.26-4.11.87-5.33,1.83-1.22.96-1.82,2.21-1.82,3.77,0,.73.15,1.45.46,2.17.3.73.69,1.27,1.16,1.63,1.73-.26,3.43-.98,5.12-2.17Z"/>
      <path class="cls-2" d="M1770.52,212.07c-1.31,1.24-2.69,2.2-4.13,2.87-1.45.67-2.9,1.01-4.35,1.01-3.93,0-6.88-1.36-8.87-4.08-1.99-2.72-2.98-6.72-2.98-12,0-5.7,1.03-10.01,3.08-12.93,2.06-2.92,5.09-4.39,9.11-4.39,3.04,0,5.86,1.01,8.48,3.03.7-1.81,2.22-2.72,4.56-2.72.89,0,1.9.22,3.05.66,1.14.44,2.21,1.15,3.19,2.14-.79.93-1.37,1.84-1.72,2.72-.35.88-.61,2.07-.77,3.57-.17,1.5-.25,3.68-.25,6.52,0,6.37.08,12.27.25,17.71.16,5.44.36,9.32.6,11.65-2.94.78-6.47,1.17-10.58,1.17.75-3.63,1.19-9.27,1.33-16.93ZM1767.54,209.55c1.05-.59,2.04-1.36,2.98-2.29v-.93c0-3.78-.07-7.09-.21-9.94l-.07-3.96c-1.5-.78-2.97-1.17-4.42-1.17-4.35,0-6.52,3.24-6.52,9.71,0,2.59.47,4.75,1.4,6.49.93,1.74,2.2,2.78,3.79,3.15.98-.1,2-.45,3.05-1.05Z"/>
      <path class="cls-2" d="M1787.13,205.16l.14-4.89.14-5.2c0-5.07-.44-8.7-1.33-10.87,3.08-1.04,6.61-1.55,10.58-1.55-.28,4.09-.42,10.56-.42,19.42,0,1.92.28,3.26.84,4.04.56.78,1.47,1.17,2.73,1.17,1.82,0,3.43-.54,4.84-1.63.09-3.11.14-5.23.14-6.37l.14-4.19c0-5.07-.45-8.7-1.33-10.87,3.08-1.04,6.61-1.55,10.58-1.55-.19,3.21-.37,7.02-.56,11.42-.19,4.4-.28,7.33-.28,8.78,0,2.28.19,4.07.56,5.36.37,1.29,1.1,2.67,2.17,4.12-2.52,1.97-5.33,3.16-8.41,3.57-1.31-1.04-2.22-2.56-2.73-4.58-1.17,1.45-2.55,2.58-4.14,3.38-1.59.8-3.2,1.2-4.84,1.2-5.89,0-8.83-3.57-8.83-10.72Z"/>
      <path class="cls-2" d="M1820.92,172.92c1.87-2.43,3.76-4.56,5.68-6.37,1.73,2.33,3.65,4.45,5.75,6.37-1.73,2.33-3.64,4.45-5.75,6.37-1.68-2.23-3.57-4.35-5.68-6.37ZM1823.26,214.32c-.77-.93-1.16-2.59-1.16-4.97,0-1.92.05-4.63.14-8.16.09-3.31.14-5.75.14-7.3,0-2.07-.12-4.01-.35-5.83-.23-1.81-.56-3.11-.98-3.88,1.73-.57,3.41-.97,5.05-1.2,1.63-.23,3.46-.35,5.47-.35-.23,1.5-.43,3.82-.6,6.95-.16,3.13-.25,6.64-.25,10.52,0,2.85.08,5.02.25,6.52.16,1.5.42,2.69.77,3.57.35.88.92,1.79,1.72,2.72-.98.98-2.04,1.7-3.19,2.14-1.15.44-2.16.66-3.05.66-1.87,0-3.19-.47-3.96-1.4Z"/>
      <path class="cls-2" d="M1856.17,211.8c-2.29-2.72-3.43-6.59-3.43-11.61,0-3.42.68-6.46,2.03-9.13,1.35-2.67,3.26-4.75,5.71-6.25,2.45-1.5,5.25-2.25,8.38-2.25,4.11,0,7.22,1.43,9.32,4.27,2.1,2.85,3.15,7.04,3.15,12.58-2.62.67-5.65,1.26-9.11,1.75-3.46.49-6.85.76-10.16.82.37,1.86,1.12,3.24,2.24,4.12,1.12.88,2.66,1.32,4.63,1.32s3.9-.26,5.68-.78c1.78-.52,3.32-1.27,4.63-2.25l1.05,4.58c-1.54,2.07-3.62,3.74-6.24,5.01-2.62,1.27-5.28,1.9-7.99,1.9-4.3,0-7.59-1.36-9.88-4.08ZM1867.14,196.92c1.8-.47,3.3-1.01,4.52-1.63-.09-2.17-.71-3.99-1.86-5.44-1.15-1.45-2.56-2.18-4.24-2.18-1.17.88-2.1,2.25-2.8,4.12-.7,1.86-1.08,3.94-1.12,6.21,1.87-.26,3.7-.62,5.5-1.09Z"/>
      <path class="cls-2" d="M1885.75,213.08c0-1.35.11-2.56.32-3.65s.55-2.28,1.02-3.57c.93,1.24,2.21,2.24,3.82,2.99,1.61.75,3.42,1.13,5.43,1.13,3.32,0,4.98-.85,4.98-2.56,0-.78-.37-1.4-1.12-1.86-.75-.47-2.01-1.09-3.79-1.86-2.06-.88-3.77-1.73-5.15-2.56-1.38-.83-2.57-1.99-3.57-3.5-1.01-1.5-1.51-3.37-1.51-5.59,0-2.9,1.13-5.2,3.4-6.91,2.27-1.71,5.29-2.56,9.08-2.56,1.96,0,3.95.17,5.96.5,2.01.34,3.74.79,5.19,1.36,0,1.29-.25,2.98-.74,5.05-.49,2.07-1.02,3.57-1.58,4.51-1.78-1.55-3.53-2.78-5.26-3.69-1.73-.91-3.22-1.36-4.49-1.36-.56.16-1.04.43-1.44.82-.4.39-.6.82-.6,1.28,0,.67.4,1.28,1.19,1.83.79.54,2.06,1.2,3.79,1.98,2.06.93,3.76,1.81,5.12,2.64,1.35.83,2.52,1.94,3.5,3.34.98,1.4,1.47,3.11,1.47,5.13,0,3.16-1.16,5.61-3.47,7.34-2.31,1.74-5.55,2.6-9.71,2.6-5,0-8.95-.93-11.85-2.8Z"/>
      <path class="cls-2" d="M1920.17,214.01c-.94-1.14-1.4-3.13-1.4-5.98,0-1.55.05-3.93.14-7.15.09-3.62.14-6.6.14-8.93,0-.72-.05-1.4-.14-2.02-2.01,0-3.35-.23-4.03-.7-.68-.47-1.02-1.4-1.02-2.8,3.36-1.81,6.71-4.43,10.02-7.84l3.79.23c.19,1.76.3,3.57.35,5.44,3.13-.05,5.42-.26,6.87-.62,0,1.4-.09,2.64-.28,3.73s-.49,2.17-.91,3.26c-1.36-.57-3.29-.88-5.82-.93-.14,1.86-.21,3.78-.21,5.75,0,5.39.26,9.66.77,12.82,1.82-.05,3.65-.28,5.47-.7l.42,3.34c-.98,1.45-2.35,2.62-4.1,3.5-1.75.88-3.52,1.32-5.29,1.32-2.24,0-3.83-.57-4.77-1.71Z"/>
      <path class="cls-2" d="M1939.12,213.9c-1.19-1.32-1.79-3.09-1.79-5.32,0-3.31,1.35-5.89,4.07-7.73,2.71-1.84,6.84-3.02,12.41-3.53-.14-1.92-.63-3.29-1.47-4.12-.84-.83-2.17-1.24-4-1.24-1.64,0-3.27.26-4.91.78-1.64.52-3.04,1.22-4.21,2.1l-.56-4.58c1.49-2.28,3.43-4.13,5.82-5.55,2.38-1.42,4.81-2.14,7.29-2.14,3.5,0,6.19.89,8.06,2.68,1.87,1.79,2.8,4.36,2.8,7.73,0,1.86-.12,3.96-.35,6.29-.19,2.49-.28,4.32-.28,5.51,0,1.92.19,3.43.56,4.54.37,1.11,1.1,2.32,2.17,3.61-2.38,1.66-4.98,2.64-7.78,2.95-1.26-.88-2.22-2.12-2.87-3.73-1.64,1.14-3.32,2.05-5.05,2.72-1.73.67-3.29,1.01-4.7,1.01-2.29,0-4.03-.66-5.22-1.98ZM1943.86,176.65c1.82-.88,3.43-2.32,4.84-4.31,1.4-1.99,2.2-3.95,2.38-5.86,2.06,0,3.85.38,5.4,1.13,1.54.75,2.71,1.85,3.5,3.3-1.54,2.07-3.75,3.87-6.62,5.4-2.87,1.53-5.78,2.52-8.73,2.99l-.77-2.64ZM1953.32,208.42v-.78c0-.62.02-1.31.07-2.06.05-.75.09-1.36.14-1.83l.21-2.56c-2.34.26-4.11.87-5.33,1.83-1.22.96-1.82,2.21-1.82,3.77,0,.73.15,1.45.46,2.17.3.73.69,1.27,1.16,1.63,1.73-.26,3.43-.98,5.12-2.17Z"/>
      <path class="cls-2" d="M1989.7,214.01c-.94-1.14-1.4-3.13-1.4-5.98,0-1.55.05-3.93.14-7.15.09-3.62.14-6.6.14-8.93,0-.72-.05-1.4-.14-2.02-2.01,0-3.35-.23-4.03-.7-.68-.47-1.02-1.4-1.02-2.8,3.36-1.81,6.71-4.43,10.02-7.84l3.79.23c.19,1.76.3,3.57.35,5.44,3.13-.05,5.42-.26,6.87-.62,0,1.4-.09,2.64-.28,3.73s-.49,2.17-.91,3.26c-1.36-.57-3.29-.88-5.82-.93-.14,1.86-.21,3.78-.21,5.75,0,5.39.26,9.66.77,12.82,1.82-.05,3.65-.28,5.47-.7l.42,3.34c-.98,1.45-2.35,2.62-4.1,3.5-1.75.88-3.52,1.32-5.29,1.32-2.24,0-3.83-.57-4.77-1.71Z"/>
      <path class="cls-2" d="M2009.04,205.16l.14-4.89.14-5.2c0-5.07-.44-8.7-1.33-10.87,3.08-1.04,6.61-1.55,10.58-1.55-.28,4.09-.42,10.56-.42,19.42,0,1.92.28,3.26.84,4.04.56.78,1.47,1.17,2.73,1.17,1.82,0,3.43-.54,4.84-1.63.09-3.11.14-5.23.14-6.37l.14-4.19c0-5.07-.45-8.7-1.33-10.87,3.08-1.04,6.61-1.55,10.58-1.55-.19,3.21-.37,7.02-.56,11.42-.19,4.4-.28,7.33-.28,8.78,0,2.28.19,4.07.56,5.36.37,1.29,1.1,2.67,2.17,4.12-2.52,1.97-5.33,3.16-8.41,3.57-1.31-1.04-2.22-2.56-2.73-4.58-1.17,1.45-2.55,2.58-4.14,3.38-1.59.8-3.2,1.2-4.84,1.2-5.89,0-8.83-3.57-8.83-10.72Z"/>
      <path class="cls-2" d="M2044.89,211.88c-1.99-2.72-2.98-6.72-2.98-12,0-5.7,1.03-10.01,3.08-12.93,2.06-2.92,5.09-4.39,9.11-4.39,2.85,0,5.42.83,7.71,2.49-.19-4.71-.61-8.36-1.26-10.95,2.76-1.04,6.28-1.55,10.58-1.55-.56,5.85-.84,15.74-.84,29.67,0,2.38.19,4.26.56,5.63.37,1.37,1.1,2.86,2.17,4.47-1.17.93-2.49,1.71-3.96,2.33-1.47.62-2.96,1.04-4.45,1.24-1.17-.98-1.99-2.23-2.45-3.73-1.26,1.19-2.63,2.12-4.1,2.8s-2.91,1.01-4.31,1.01c-3.93,0-6.88-1.36-8.87-4.08ZM2061.61,207.88c0-1.66.05-4.19.14-7.61.09-3.42.14-6.03.14-7.85-1.5-.78-2.94-1.17-4.35-1.17-4.35,0-6.52,3.24-6.52,9.71,0,2.59.47,4.75,1.4,6.49.93,1.74,2.2,2.78,3.79,3.15,1.82-.26,3.62-1.17,5.4-2.72Z"/>
      <path class="cls-2" d="M2083.27,213.9c-2.15-1.32-3.81-3.17-4.98-5.55-1.17-2.38-1.75-5.13-1.75-8.23,0-3.42.7-6.46,2.1-9.13,1.4-2.67,3.36-4.74,5.89-6.21,2.52-1.48,5.4-2.21,8.62-2.21,2.9,0,5.46.66,7.67,1.98,2.22,1.32,3.94,3.17,5.15,5.55,1.21,2.38,1.82,5.13,1.82,8.23,0,3.42-.73,6.46-2.17,9.13-1.45,2.67-3.47,4.74-6.06,6.21-2.59,1.48-5.55,2.21-8.87,2.21-2.8,0-5.28-.66-7.43-1.98ZM2097.15,208.58c1.26-1.66,1.89-3.96,1.89-6.91,0-2.54-.56-4.74-1.68-6.6-1.12-1.86-2.64-3.13-4.56-3.81-2.29,0-4.11.88-5.47,2.64-1.36,1.76-2.03,4.14-2.03,7.15s.62,5.43,1.86,7.26c1.24,1.84,2.84,2.76,4.8,2.76,2.2,0,3.92-.83,5.19-2.49Z"/>
      <path class="cls-2" d="M2134.15,213.9c-2.15-1.32-3.81-3.17-4.98-5.55-1.17-2.38-1.75-5.13-1.75-8.23,0-3.42.7-6.46,2.1-9.13,1.4-2.67,3.36-4.74,5.89-6.21,2.52-1.48,5.4-2.21,8.62-2.21,2.9,0,5.46.66,7.67,1.98,2.22,1.32,3.94,3.17,5.15,5.55,1.21,2.38,1.82,5.13,1.82,8.23,0,3.42-.73,6.46-2.17,9.13-1.45,2.67-3.47,4.74-6.06,6.21-2.59,1.48-5.55,2.21-8.87,2.21-2.8,0-5.28-.66-7.43-1.98ZM2148.03,208.58c1.26-1.66,1.89-3.96,1.89-6.91,0-2.54-.56-4.74-1.68-6.6-1.12-1.86-2.64-3.13-4.56-3.81-2.29,0-4.11.88-5.47,2.64-1.36,1.76-2.03,4.14-2.03,7.15s.62,5.43,1.86,7.26c1.24,1.84,2.84,2.76,4.8,2.76,2.2,0,3.92-.83,5.19-2.49Z"/>
      <path class="cls-2" d="M2199.06,212.07c-1.31,1.24-2.69,2.2-4.13,2.87-1.45.67-2.9,1.01-4.35,1.01-3.93,0-6.88-1.36-8.87-4.08-1.99-2.72-2.98-6.72-2.98-12,0-5.7,1.03-10.01,3.08-12.93,2.06-2.92,5.09-4.39,9.11-4.39,3.04,0,5.86,1.01,8.48,3.03.7-1.81,2.22-2.72,4.56-2.72.89,0,1.9.22,3.05.66,1.14.44,2.21,1.15,3.19,2.14-.79.93-1.37,1.84-1.72,2.72-.35.88-.61,2.07-.77,3.57-.17,1.5-.25,3.68-.25,6.52,0,6.37.08,12.27.25,17.71.16,5.44.36,9.32.6,11.65-2.94.78-6.47,1.17-10.58,1.17.75-3.63,1.19-9.27,1.33-16.93ZM2196.08,209.55c1.05-.59,2.04-1.36,2.98-2.29v-.93c0-3.78-.07-7.09-.21-9.94l-.07-3.96c-1.5-.78-2.97-1.17-4.42-1.17-4.35,0-6.52,3.24-6.52,9.71,0,2.59.47,4.75,1.4,6.49.93,1.74,2.2,2.78,3.79,3.15.98-.1,2-.45,3.05-1.05Z"/>
      <path class="cls-2" d="M2215.67,205.16l.14-4.89.14-5.2c0-5.07-.44-8.7-1.33-10.87,3.08-1.04,6.61-1.55,10.58-1.55-.28,4.09-.42,10.56-.42,19.42,0,1.92.28,3.26.84,4.04.56.78,1.47,1.17,2.73,1.17,1.82,0,3.43-.54,4.84-1.63.09-3.11.14-5.23.14-6.37l.14-4.19c0-5.07-.45-8.7-1.33-10.87,3.08-1.04,6.61-1.55,10.58-1.55-.19,3.21-.37,7.02-.56,11.42-.19,4.4-.28,7.33-.28,8.78,0,2.28.19,4.07.56,5.36.37,1.29,1.1,2.67,2.17,4.12-2.52,1.97-5.33,3.16-8.41,3.57-1.31-1.04-2.22-2.56-2.73-4.58-1.17,1.45-2.55,2.58-4.14,3.38-1.59.8-3.2,1.2-4.84,1.2-5.89,0-8.83-3.57-8.83-10.72Z"/>
      <path class="cls-2" d="M2251.63,211.8c-2.29-2.72-3.43-6.59-3.43-11.61,0-3.42.68-6.46,2.03-9.13,1.35-2.67,3.26-4.75,5.71-6.25,2.45-1.5,5.25-2.25,8.38-2.25,4.11,0,7.22,1.43,9.32,4.27,2.1,2.85,3.15,7.04,3.15,12.58-2.62.67-5.65,1.26-9.11,1.75-3.46.49-6.85.76-10.16.82.37,1.86,1.12,3.24,2.24,4.12,1.12.88,2.66,1.32,4.63,1.32s3.9-.26,5.68-.78c1.78-.52,3.32-1.27,4.63-2.25l1.05,4.58c-1.54,2.07-3.62,3.74-6.24,5.01-2.62,1.27-5.28,1.9-7.99,1.9-4.3,0-7.59-1.36-9.88-4.08ZM2262.6,196.92c1.8-.47,3.3-1.01,4.52-1.63-.09-2.17-.71-3.99-1.86-5.44-1.15-1.45-2.56-2.18-4.24-2.18-1.17.88-2.1,2.25-2.8,4.12-.7,1.86-1.08,3.94-1.12,6.21,1.87-.26,3.7-.62,5.5-1.09Z"/>
      <path class="cls-2" d="M2306.58,213.82c-1.03-1.27-1.88-2.87-2.56-4.82s-1.48-4.62-2.42-8.04c-1.12-3.99-2.14-7.25-3.05-9.79-.91-2.54-2.04-4.74-3.4-6.6,2.71-1.09,6.4-1.63,11.07-1.63.56,3.42,1.55,7.65,2.98,12.7,1.42,5.05,2.77,9.05,4.03,12,1.92-6.94,3.24-11.92,3.96-14.95s1.09-5.24,1.09-6.64c0-.88-.14-1.63-.42-2.25,2.38-.57,5.05-.85,7.99-.85-2.66,7.15-5.58,17.14-8.76,29.98l-6.87,2.8c-1.4,0-2.62-.63-3.65-1.9Z"/>
      <path class="cls-2" d="M2334.83,213.9c-2.15-1.32-3.81-3.17-4.98-5.55-1.17-2.38-1.75-5.13-1.75-8.23,0-3.42.7-6.46,2.1-9.13,1.4-2.67,3.36-4.74,5.89-6.21,2.52-1.48,5.4-2.21,8.62-2.21,2.9,0,5.46.66,7.67,1.98,2.22,1.32,3.94,3.17,5.15,5.55,1.21,2.38,1.82,5.13,1.82,8.23,0,3.42-.73,6.46-2.17,9.13-1.45,2.67-3.47,4.74-6.06,6.21-2.59,1.48-5.55,2.21-8.87,2.21-2.8,0-5.28-.66-7.43-1.98ZM2348.71,208.58c1.26-1.66,1.89-3.96,1.89-6.91,0-2.54-.56-4.74-1.68-6.6-1.12-1.86-2.64-3.13-4.56-3.81-2.29,0-4.11.88-5.47,2.64-1.36,1.76-2.03,4.14-2.03,7.15s.62,5.43,1.86,7.26c1.24,1.84,2.84,2.76,4.8,2.76,2.2,0,3.92-.83,5.19-2.49Z"/>
      <path class="cls-2" d="M2366.44,211.8c-2.34-2.72-3.5-6.59-3.5-11.61,0-3.42.69-6.46,2.07-9.13,1.38-2.67,3.29-4.75,5.75-6.25,2.45-1.5,5.27-2.25,8.45-2.25s5.75.62,7.85,1.86c0,1.19-.21,2.78-.63,4.78-.42,1.99-.91,3.74-1.47,5.24-1.73-1.71-3.4-3.05-5.01-4.04-1.61-.98-2.96-1.48-4.03-1.48-1.17.88-2.09,2.15-2.77,3.81-.68,1.66-1.02,3.52-1.02,5.59,0,5.96,2.38,8.93,7.15,8.93,1.59,0,3.08-.25,4.49-.74,1.4-.49,2.62-1.2,3.64-2.14l.56,5.2c-1.26,1.86-2.97,3.38-5.12,4.54-2.15,1.17-4.3,1.75-6.45,1.75-4.3,0-7.62-1.36-9.95-4.08Z"/>
      <path class="cls-2" d="M2394.83,211.8c-2.29-2.72-3.43-6.59-3.43-11.61,0-3.42.68-6.46,2.03-9.13,1.35-2.67,3.26-4.75,5.71-6.25,2.45-1.5,5.25-2.25,8.38-2.25,4.11,0,7.22,1.43,9.32,4.27,2.1,2.85,3.15,7.04,3.15,12.58-2.62.67-5.65,1.26-9.11,1.75-3.46.49-6.85.76-10.16.82.37,1.86,1.12,3.24,2.24,4.12,1.12.88,2.66,1.32,4.63,1.32s3.9-.26,5.68-.78c1.78-.52,3.32-1.27,4.63-2.25l1.05,4.58c-1.54,2.07-3.62,3.74-6.24,5.01-2.62,1.27-5.28,1.9-7.99,1.9-4.3,0-7.59-1.36-9.88-4.08ZM2395.81,177.35c1.73-2.17,3.81-5.23,6.24-9.17,1.96-.67,4.67-1.01,8.13-1.01.84,1.66,1.93,3.51,3.26,5.55,1.33,2.05,2.35,3.43,3.05,4.16-2.15.73-4.88,1.09-8.2,1.09l-3.58-5.67-3.29,5.67c-1.64,0-3.5-.21-5.61-.62ZM2405.79,196.92c1.8-.47,3.3-1.01,4.52-1.63-.09-2.17-.71-3.99-1.86-5.44-1.15-1.45-2.56-2.18-4.24-2.18-1.17.88-2.1,2.25-2.8,4.12-.7,1.86-1.08,3.94-1.12,6.21,1.87-.26,3.7-.62,5.5-1.09Z"/>
      <path class="cls-2" d="M4.8,309.4c.16-5.54.25-11.44.25-17.71,0-2.85-.08-5.02-.25-6.52-.16-1.5-.42-2.69-.77-3.57-.35-.88-.92-1.79-1.72-2.72.98-.98,2.04-1.7,3.19-2.14,1.14-.44,2.16-.66,3.05-.66,2.76,0,4.44,1.35,5.05,4.04,1.21-1.24,2.6-2.21,4.17-2.91,1.56-.7,3.21-1.05,4.94-1.05,3.65,0,6.46,1.33,8.45,4,1.99,2.67,2.98,6.54,2.98,11.61,0,5.39-1.4,9.59-4.21,12.62s-6.71,4.54-11.71,4.54c-1.68,0-3.22-.23-4.63-.7.23,5.64.63,9.79,1.19,12.43-3.08,1.04-6.61,1.55-10.58,1.55.23-3,.43-7.28.6-12.82ZM22.85,301.51c1.17-1.68,1.75-4.03,1.75-7.03,0-2.38-.44-4.44-1.33-6.18-.89-1.73-2.15-3.02-3.79-3.84-2.01,0-3.93.6-5.75,1.79-.19,4.76-.28,9.19-.28,13.28v2.25c1.26,1.5,2.78,2.25,4.56,2.25,2.06,0,3.67-.84,4.84-2.52Z"/>
      <path class="cls-2" d="M41.35,308.23c.33-5.18.49-10.69.49-16.54,0-2.85-.08-5.02-.25-6.52-.16-1.5-.42-2.69-.77-3.57-.35-.88-.92-1.79-1.72-2.72.98-.98,2.04-1.7,3.19-2.14,1.14-.44,2.16-.66,3.05-.66,3.46,0,5.33,1.86,5.61,5.59,1.12-1.6,2.31-2.92,3.57-3.96,1.26-1.04,2.71-1.81,4.35-2.33.33,1.19.62,2.86.88,5.01.26,2.15.39,4.13.39,5.94-.84-.16-1.64-.23-2.38-.23-1.4,0-2.71.19-3.93.58-1.22.39-2.22.89-3.01,1.51-.09,3.31-.14,6.11-.14,8.39,0,5.44.47,9.32,1.4,11.65-1.31.31-3.06.47-5.26.47-1.54,0-3.36-.16-5.47-.47Z"/>
      <path class="cls-2" d="M66.17,305.01c-2.29-2.72-3.43-6.59-3.43-11.61,0-3.42.68-6.46,2.03-9.13,1.35-2.67,3.26-4.75,5.71-6.25,2.45-1.5,5.24-2.25,8.38-2.25,4.11,0,7.22,1.43,9.32,4.27,2.1,2.85,3.15,7.04,3.15,12.58-2.62.67-5.65,1.26-9.11,1.75-3.46.49-6.85.76-10.16.82.37,1.86,1.12,3.24,2.24,4.12,1.12.88,2.66,1.32,4.63,1.32s3.9-.26,5.68-.78c1.78-.52,3.32-1.27,4.63-2.25l1.05,4.58c-1.54,2.07-3.62,3.74-6.24,5.01-2.62,1.27-5.28,1.9-7.99,1.9-4.3,0-7.59-1.36-9.88-4.08ZM77.14,290.13c1.8-.47,3.31-1.01,4.52-1.63-.09-2.17-.71-3.99-1.86-5.44-1.15-1.45-2.56-2.18-4.24-2.18-1.17.88-2.1,2.25-2.8,4.12-.7,1.86-1.08,3.94-1.12,6.21,1.87-.26,3.7-.62,5.5-1.09Z"/>
      <path class="cls-2" d="M98.69,305.01c-2.34-2.72-3.5-6.59-3.5-11.61,0-3.42.69-6.46,2.07-9.13,1.38-2.67,3.29-4.75,5.75-6.25,2.45-1.5,5.27-2.25,8.45-2.25s5.75.62,7.85,1.86c0,1.19-.21,2.78-.63,4.78-.42,1.99-.91,3.74-1.47,5.24-1.73-1.71-3.4-3.05-5.01-4.04-1.61-.98-2.96-1.48-4.03-1.48-1.17.88-2.09,2.15-2.77,3.81-.68,1.66-1.02,3.52-1.02,5.59,0,5.96,2.38,8.93,7.15,8.93,1.59,0,3.08-.25,4.49-.74,1.4-.49,2.62-1.2,3.65-2.14l.56,5.2c-1.26,1.86-2.97,3.38-5.12,4.54-2.15,1.17-4.3,1.75-6.45,1.75-4.3,0-7.62-1.36-9.95-4.08Z"/>
      <path class="cls-2" d="M124.9,266.13c1.87-2.43,3.76-4.56,5.68-6.37,1.73,2.33,3.65,4.45,5.75,6.37-1.73,2.33-3.65,4.45-5.75,6.37-1.68-2.23-3.57-4.35-5.68-6.37ZM127.25,307.53c-.77-.93-1.16-2.59-1.16-4.97,0-1.92.05-4.63.14-8.16.09-3.31.14-5.75.14-7.3,0-2.07-.12-4.01-.35-5.83-.23-1.81-.56-3.11-.98-3.88,1.73-.57,3.41-.97,5.05-1.2,1.64-.23,3.46-.35,5.47-.35-.23,1.5-.43,3.82-.6,6.95-.16,3.13-.25,6.64-.25,10.52,0,2.85.08,5.02.25,6.52.16,1.5.42,2.69.77,3.57.35.88.92,1.79,1.72,2.72-.98.98-2.04,1.7-3.19,2.14-1.15.44-2.16.66-3.05.66-1.87,0-3.19-.47-3.96-1.4Z"/>
      <path class="cls-2" d="M141.16,306.29c0-1.35.1-2.56.32-3.65s.55-2.28,1.02-3.57c.93,1.24,2.21,2.24,3.82,2.99,1.61.75,3.42,1.13,5.43,1.13,3.32,0,4.98-.85,4.98-2.56,0-.78-.37-1.4-1.12-1.86-.75-.47-2.01-1.09-3.79-1.86-2.06-.88-3.77-1.73-5.15-2.56-1.38-.83-2.57-1.99-3.57-3.5-1.01-1.5-1.51-3.37-1.51-5.59,0-2.9,1.13-5.2,3.4-6.91,2.27-1.71,5.29-2.56,9.08-2.56,1.96,0,3.95.17,5.96.5,2.01.34,3.74.79,5.19,1.36,0,1.29-.25,2.98-.74,5.05-.49,2.07-1.02,3.57-1.58,4.51-1.78-1.55-3.53-2.78-5.26-3.69-1.73-.91-3.22-1.36-4.49-1.36-.56.16-1.04.43-1.44.82-.4.39-.6.82-.6,1.28,0,.67.4,1.28,1.19,1.83.79.54,2.06,1.2,3.78,1.98,2.06.93,3.76,1.81,5.12,2.64,1.35.83,2.52,1.94,3.5,3.34.98,1.4,1.47,3.11,1.47,5.13,0,3.16-1.16,5.61-3.47,7.34-2.31,1.74-5.55,2.6-9.71,2.6-5,0-8.95-.93-11.85-2.8Z"/>
      <path class="cls-2" d="M171.41,307.1c-1.19-1.32-1.79-3.09-1.79-5.32,0-3.31,1.35-5.89,4.07-7.73,2.71-1.84,6.84-3.02,12.41-3.53-.14-1.92-.63-3.29-1.47-4.12-.84-.83-2.17-1.24-4-1.24-1.64,0-3.27.26-4.91.78-1.64.52-3.04,1.22-4.21,2.1l-.56-4.58c1.5-2.28,3.43-4.13,5.82-5.55,2.38-1.42,4.81-2.14,7.29-2.14,3.5,0,6.19.89,8.06,2.68,1.87,1.79,2.8,4.36,2.8,7.73,0,1.86-.12,3.96-.35,6.29-.19,2.49-.28,4.32-.28,5.51,0,1.92.19,3.43.56,4.54.37,1.11,1.1,2.32,2.17,3.61-2.38,1.66-4.98,2.64-7.78,2.95-1.26-.88-2.22-2.12-2.87-3.73-1.64,1.14-3.32,2.05-5.05,2.72-1.73.67-3.29,1.01-4.7,1.01-2.29,0-4.03-.66-5.22-1.98ZM185.6,301.63v-.78c0-.62.02-1.31.07-2.06.05-.75.09-1.36.14-1.83l.21-2.56c-2.34.26-4.11.87-5.33,1.83-1.22.96-1.82,2.21-1.82,3.77,0,.73.15,1.45.46,2.17.3.73.69,1.27,1.16,1.63,1.73-.26,3.43-.98,5.12-2.17Z"/>
      <path class="cls-2" d="M216.58,306.29c0-1.35.1-2.56.32-3.65s.55-2.28,1.02-3.57c.93,1.24,2.21,2.24,3.82,2.99,1.61.75,3.42,1.13,5.43,1.13,3.32,0,4.98-.85,4.98-2.56,0-.78-.37-1.4-1.12-1.86-.75-.47-2.01-1.09-3.79-1.86-2.06-.88-3.77-1.73-5.15-2.56-1.38-.83-2.57-1.99-3.57-3.5-1.01-1.5-1.51-3.37-1.51-5.59,0-2.9,1.13-5.2,3.4-6.91,2.27-1.71,5.29-2.56,9.08-2.56,1.96,0,3.95.17,5.96.5,2.01.34,3.74.79,5.19,1.36,0,1.29-.25,2.98-.74,5.05-.49,2.07-1.02,3.57-1.58,4.51-1.78-1.55-3.53-2.78-5.26-3.69-1.73-.91-3.22-1.36-4.49-1.36-.56.16-1.04.43-1.44.82-.4.39-.6.82-.6,1.28,0,.67.4,1.28,1.19,1.83.79.54,2.06,1.2,3.78,1.98,2.06.93,3.76,1.81,5.12,2.64,1.35.83,2.52,1.94,3.5,3.34.98,1.4,1.47,3.11,1.47,5.13,0,3.16-1.16,5.61-3.47,7.34-2.31,1.74-5.55,2.6-9.71,2.6-5,0-8.95-.93-11.85-2.8Z"/>
      <path class="cls-2" d="M246.83,307.1c-1.19-1.32-1.79-3.09-1.79-5.32,0-3.31,1.35-5.89,4.07-7.73,2.71-1.84,6.84-3.02,12.41-3.53-.14-1.92-.63-3.29-1.47-4.12-.84-.83-2.17-1.24-4-1.24-1.64,0-3.27.26-4.91.78-1.64.52-3.04,1.22-4.21,2.1l-.56-4.58c1.5-2.28,3.43-4.13,5.82-5.55,2.38-1.42,4.81-2.14,7.29-2.14,3.5,0,6.19.89,8.06,2.68,1.87,1.79,2.8,4.36,2.8,7.73,0,1.86-.12,3.96-.35,6.29-.19,2.49-.28,4.32-.28,5.51,0,1.92.19,3.43.56,4.54.37,1.11,1.1,2.32,2.17,3.61-2.38,1.66-4.98,2.64-7.78,2.95-1.26-.88-2.22-2.12-2.87-3.73-1.64,1.14-3.32,2.05-5.05,2.72-1.73.67-3.29,1.01-4.7,1.01-2.29,0-4.03-.66-5.22-1.98ZM261.02,301.63v-.78c0-.62.02-1.31.07-2.06.05-.75.09-1.36.14-1.83l.21-2.56c-2.34.26-4.11.87-5.33,1.83-1.22.96-1.82,2.21-1.82,3.77,0,.73.15,1.45.46,2.17.3.73.69,1.27,1.16,1.63,1.73-.26,3.43-.98,5.12-2.17Z"/>
      <path class="cls-2" d="M286.39,307.96c-1.59-.65-2.97-1.57-4.14-2.76l-1.68,3.03c-.94,0-2.27-.13-4-.39.19-2.59.35-6.52.49-11.81s.21-9.84.21-13.67c0-7.2-.4-12.22-1.19-15.07,1.68-.57,3.34-.97,4.98-1.2,1.64-.23,3.5-.35,5.61-.35-.28,2.49-.51,7.15-.7,13.98,2.76-2.23,5.68-3.34,8.76-3.34,3.6,0,6.37,1.32,8.31,3.96,1.94,2.64,2.91,6.45,2.91,11.42,0,5.49-1.25,9.72-3.75,12.7-2.5,2.98-6.06,4.47-10.69,4.47-1.82,0-3.53-.32-5.12-.97ZM295.09,301.86c1.12-1.55,1.68-3.83,1.68-6.84,0-2.64-.42-4.87-1.26-6.68-.84-1.81-2.03-3.16-3.58-4.04-2.24,0-4.3.6-6.17,1.79l-.14,7.22c0,4.04.16,6.94.49,8.7,1.21,1.45,2.57,2.17,4.07,2.17,2.15,0,3.78-.78,4.91-2.33Z"/>
      <path class="cls-2" d="M313.24,305.01c-2.29-2.72-3.43-6.59-3.43-11.61,0-3.42.68-6.46,2.03-9.13,1.35-2.67,3.26-4.75,5.71-6.25,2.45-1.5,5.24-2.25,8.38-2.25,4.11,0,7.22,1.43,9.32,4.27,2.1,2.85,3.15,7.04,3.15,12.58-2.62.67-5.65,1.26-9.11,1.75-3.46.49-6.85.76-10.16.82.37,1.86,1.12,3.24,2.24,4.12,1.12.88,2.66,1.32,4.63,1.32s3.9-.26,5.68-.78c1.78-.52,3.32-1.27,4.63-2.25l1.05,4.58c-1.54,2.07-3.62,3.74-6.24,5.01-2.62,1.27-5.28,1.9-7.99,1.9-4.3,0-7.59-1.36-9.88-4.08ZM324.21,290.13c1.8-.47,3.31-1.01,4.52-1.63-.09-2.17-.71-3.99-1.86-5.44-1.15-1.45-2.56-2.18-4.24-2.18-1.17.88-2.1,2.25-2.8,4.12-.7,1.86-1.08,3.94-1.12,6.21,1.87-.26,3.7-.62,5.5-1.09Z"/>
      <path class="cls-2" d="M345.62,308.23c.33-5.18.49-10.69.49-16.54,0-2.85-.08-5.02-.25-6.52-.16-1.5-.42-2.69-.77-3.57-.35-.88-.92-1.79-1.72-2.72.98-.98,2.04-1.7,3.19-2.14,1.14-.44,2.16-.66,3.05-.66,3.46,0,5.33,1.86,5.61,5.59,1.12-1.6,2.31-2.92,3.57-3.96,1.26-1.04,2.71-1.81,4.35-2.33.33,1.19.62,2.86.88,5.01.26,2.15.39,4.13.39,5.94-.84-.16-1.64-.23-2.38-.23-1.4,0-2.71.19-3.93.58-1.22.39-2.22.89-3.01,1.51-.09,3.31-.14,6.11-.14,8.39,0,5.44.47,9.32,1.4,11.65-1.31.31-3.06.47-5.26.47-1.54,0-3.36-.16-5.47-.47Z"/>
      <path class="cls-2" d="M382.98,306.29c0-1.35.1-2.56.32-3.65s.55-2.28,1.02-3.57c.93,1.24,2.21,2.24,3.82,2.99,1.61.75,3.42,1.13,5.43,1.13,3.32,0,4.98-.85,4.98-2.56,0-.78-.37-1.4-1.12-1.86-.75-.47-2.01-1.09-3.79-1.86-2.06-.88-3.77-1.73-5.15-2.56-1.38-.83-2.57-1.99-3.57-3.5-1.01-1.5-1.51-3.37-1.51-5.59,0-2.9,1.13-5.2,3.4-6.91,2.27-1.71,5.29-2.56,9.08-2.56,1.96,0,3.95.17,5.96.5,2.01.34,3.74.79,5.19,1.36,0,1.29-.25,2.98-.74,5.05-.49,2.07-1.02,3.57-1.58,4.51-1.78-1.55-3.53-2.78-5.26-3.69-1.73-.91-3.22-1.36-4.49-1.36-.56.16-1.04.43-1.44.82-.4.39-.6.82-.6,1.28,0,.67.4,1.28,1.19,1.83.79.54,2.06,1.2,3.78,1.98,2.06.93,3.76,1.81,5.12,2.64,1.35.83,2.52,1.94,3.5,3.34.98,1.4,1.47,3.11,1.47,5.13,0,3.16-1.16,5.61-3.47,7.34-2.31,1.74-5.55,2.6-9.71,2.6-5,0-8.95-.93-11.85-2.8Z"/>
      <path class="cls-2" d="M418.45,307.1c-2.15-1.32-3.81-3.17-4.98-5.55-1.17-2.38-1.75-5.13-1.75-8.23,0-3.42.7-6.46,2.1-9.13,1.4-2.67,3.36-4.74,5.89-6.21,2.52-1.48,5.4-2.21,8.62-2.21,2.9,0,5.46.66,7.68,1.98,2.22,1.32,3.94,3.17,5.15,5.55,1.21,2.38,1.82,5.13,1.82,8.23,0,3.42-.72,6.46-2.17,9.13-1.45,2.67-3.47,4.74-6.06,6.21-2.59,1.48-5.55,2.21-8.87,2.21-2.8,0-5.28-.66-7.43-1.98ZM432.32,301.78c1.26-1.66,1.89-3.96,1.89-6.91,0-2.54-.56-4.74-1.68-6.6-1.12-1.86-2.64-3.13-4.56-3.81-2.29,0-4.11.88-5.47,2.64-1.36,1.76-2.03,4.14-2.03,7.15s.62,5.43,1.86,7.26c1.24,1.84,2.84,2.76,4.8,2.76,2.2,0,3.93-.83,5.19-2.49Z"/>
      <path class="cls-2" d="M457.28,307.96c-1.59-.65-2.97-1.57-4.14-2.76l-1.68,3.03c-.94,0-2.27-.13-4-.39.19-2.59.35-6.52.49-11.81s.21-9.84.21-13.67c0-7.2-.4-12.22-1.19-15.07,1.68-.57,3.34-.97,4.98-1.2,1.64-.23,3.5-.35,5.61-.35-.28,2.49-.51,7.15-.7,13.98,2.76-2.23,5.68-3.34,8.76-3.34,3.6,0,6.37,1.32,8.31,3.96,1.94,2.64,2.91,6.45,2.91,11.42,0,5.49-1.25,9.72-3.75,12.7-2.5,2.98-6.06,4.47-10.69,4.47-1.82,0-3.53-.32-5.12-.97ZM465.97,301.86c1.12-1.55,1.68-3.83,1.68-6.84,0-2.64-.42-4.87-1.26-6.68-.84-1.81-2.03-3.16-3.58-4.04-2.24,0-4.3.6-6.17,1.79l-.14,7.22c0,4.04.16,6.94.49,8.7,1.21,1.45,2.57,2.17,4.07,2.17,2.15,0,3.78-.78,4.91-2.33Z"/>
      <path class="cls-2" d="M483.7,308.23c.33-5.18.49-10.69.49-16.54,0-2.85-.08-5.02-.25-6.52-.16-1.5-.42-2.69-.77-3.57-.35-.88-.92-1.79-1.72-2.72.98-.98,2.04-1.7,3.19-2.14,1.14-.44,2.16-.66,3.05-.66,3.46,0,5.33,1.86,5.61,5.59,1.12-1.6,2.31-2.92,3.57-3.96,1.26-1.04,2.71-1.81,4.35-2.33.33,1.19.62,2.86.88,5.01.26,2.15.39,4.13.39,5.94-.84-.16-1.64-.23-2.38-.23-1.4,0-2.71.19-3.93.58-1.22.39-2.22.89-3.01,1.51-.09,3.31-.14,6.11-.14,8.39,0,5.44.47,9.32,1.4,11.65-1.31.31-3.06.47-5.26.47-1.54,0-3.36-.16-5.47-.47Z"/>
      <path class="cls-2" d="M508.51,305.01c-2.29-2.72-3.43-6.59-3.43-11.61,0-3.42.68-6.46,2.03-9.13,1.35-2.67,3.26-4.75,5.71-6.25,2.45-1.5,5.24-2.25,8.38-2.25,4.11,0,7.22,1.43,9.32,4.27,2.1,2.85,3.15,7.04,3.15,12.58-2.62.67-5.65,1.26-9.11,1.75-3.46.49-6.85.76-10.16.82.37,1.86,1.12,3.24,2.24,4.12,1.12.88,2.66,1.32,4.63,1.32s3.9-.26,5.68-.78c1.78-.52,3.32-1.27,4.63-2.25l1.05,4.58c-1.54,2.07-3.62,3.74-6.24,5.01-2.62,1.27-5.28,1.9-7.99,1.9-4.3,0-7.59-1.36-9.88-4.08ZM519.48,290.13c1.8-.47,3.31-1.01,4.52-1.63-.09-2.17-.71-3.99-1.86-5.44-1.15-1.45-2.56-2.18-4.24-2.18-1.17.88-2.1,2.25-2.8,4.12-.7,1.86-1.08,3.94-1.12,6.21,1.87-.26,3.7-.62,5.5-1.09Z"/>
      <path class="cls-2" d="M556.81,305.01c-2.34-2.72-3.5-6.59-3.5-11.61,0-3.42.69-6.46,2.07-9.13,1.38-2.67,3.29-4.75,5.75-6.25,2.45-1.5,5.27-2.25,8.45-2.25s5.75.62,7.85,1.86c0,1.19-.21,2.78-.63,4.78-.42,1.99-.91,3.74-1.47,5.24-1.73-1.71-3.4-3.05-5.01-4.04-1.61-.98-2.96-1.48-4.03-1.48-1.17.88-2.09,2.15-2.77,3.81-.68,1.66-1.02,3.52-1.02,5.59,0,5.96,2.38,8.93,7.15,8.93,1.59,0,3.08-.25,4.49-.74,1.4-.49,2.62-1.2,3.65-2.14l.56,5.2c-1.26,1.86-2.97,3.38-5.12,4.54-2.15,1.17-4.3,1.75-6.45,1.75-4.3,0-7.62-1.36-9.95-4.08Z"/>
      <path class="cls-2" d="M588.42,307.1c-2.15-1.32-3.81-3.17-4.98-5.55-1.17-2.38-1.75-5.13-1.75-8.23,0-3.42.7-6.46,2.1-9.13,1.4-2.67,3.36-4.74,5.89-6.21,2.52-1.48,5.4-2.21,8.62-2.21,2.9,0,5.46.66,7.68,1.98,2.22,1.32,3.94,3.17,5.15,5.55,1.21,2.38,1.82,5.13,1.82,8.23,0,3.42-.72,6.46-2.17,9.13-1.45,2.67-3.47,4.74-6.06,6.21-2.59,1.48-5.55,2.21-8.87,2.21-2.8,0-5.28-.66-7.43-1.98ZM602.3,301.78c1.26-1.66,1.89-3.96,1.89-6.91,0-2.54-.56-4.74-1.68-6.6-1.12-1.86-2.64-3.13-4.56-3.81-2.29,0-4.11.88-5.47,2.64-1.36,1.76-2.03,4.14-2.03,7.15s.62,5.43,1.86,7.26c1.24,1.84,2.84,2.76,4.8,2.76,2.2,0,3.93-.83,5.19-2.49Z"/>
      <path class="cls-2" d="M619.89,308.23c.33-5.18.49-10.69.49-16.54,0-2.85-.08-5.02-.25-6.52-.16-1.5-.42-2.69-.77-3.57-.35-.88-.92-1.79-1.72-2.72,1.07-.98,2.23-1.7,3.47-2.14,1.24-.44,2.35-.66,3.33-.66,2.76,0,4.39,1.48,4.91,4.43,1.12-1.5,2.41-2.67,3.86-3.5,1.45-.83,2.99-1.24,4.63-1.24,4.21,0,6.92,1.84,8.13,5.52,1.12-1.76,2.46-3.12,4.03-4.08,1.56-.96,3.24-1.44,5.01-1.44,5.89,0,8.83,3.57,8.83,10.72l-.14,4.89-.14,5.2c0,5.44.47,9.32,1.4,11.65-1.31.31-3.25.47-5.82.47-1.64,0-3.27-.16-4.91-.47.33-5.28.49-11.03.49-17.24,0-2.07-.33-3.56-.98-4.47-.65-.91-1.71-1.36-3.15-1.36s-2.83.44-4,1.32c0,.93-.05,2.75-.14,5.44l-.07,4.66c0,5.44.47,9.32,1.4,11.65-1.31.31-3.25.47-5.82.47-1.64,0-3.27-.16-4.91-.47.33-5.28.49-11.03.49-17.24,0-2.07-.33-3.56-.98-4.47-.65-.91-1.71-1.36-3.15-1.36-1.59,0-2.92.47-4,1.4-.14,2.8-.21,6.14-.21,10.02,0,5.44.47,9.32,1.4,11.65-1.31.31-2.87.47-4.7.47-2.38,0-4.39-.16-6.03-.47Z"/>
      <path class="cls-2" d="M676.31,307.1c-2.15-1.32-3.81-3.17-4.98-5.55-1.17-2.38-1.75-5.13-1.75-8.23,0-3.42.7-6.46,2.1-9.13,1.4-2.67,3.36-4.74,5.89-6.21,2.52-1.48,5.4-2.21,8.62-2.21,2.9,0,5.46.66,7.68,1.98,2.22,1.32,3.94,3.17,5.15,5.55,1.21,2.38,1.82,5.13,1.82,8.23,0,3.42-.72,6.46-2.17,9.13-1.45,2.67-3.47,4.74-6.06,6.21-2.59,1.48-5.55,2.21-8.87,2.21-2.8,0-5.28-.66-7.43-1.98ZM690.19,301.78c1.26-1.66,1.89-3.96,1.89-6.91,0-2.54-.56-4.74-1.68-6.6-1.12-1.86-2.64-3.13-4.56-3.81-2.29,0-4.11.88-5.47,2.64-1.36,1.76-2.03,4.14-2.03,7.15s.62,5.43,1.86,7.26c1.24,1.84,2.84,2.76,4.8,2.76,2.2,0,3.93-.83,5.19-2.49Z"/>
      <path class="cls-2" d="M721.98,307.1c-1.19-1.32-1.79-3.09-1.79-5.32,0-3.31,1.35-5.89,4.07-7.73,2.71-1.84,6.84-3.02,12.41-3.53-.14-1.92-.63-3.29-1.47-4.12-.84-.83-2.17-1.24-4-1.24-1.64,0-3.27.26-4.91.78-1.64.52-3.04,1.22-4.21,2.1l-.56-4.58c1.5-2.28,3.43-4.13,5.82-5.55,2.38-1.42,4.81-2.14,7.29-2.14,3.5,0,6.19.89,8.06,2.68,1.87,1.79,2.8,4.36,2.8,7.73,0,1.86-.12,3.96-.35,6.29-.19,2.49-.28,4.32-.28,5.51,0,1.92.19,3.43.56,4.54.37,1.11,1.1,2.32,2.17,3.61-2.38,1.66-4.98,2.64-7.78,2.95-1.26-.88-2.22-2.12-2.87-3.73-1.64,1.14-3.32,2.05-5.05,2.72-1.73.67-3.29,1.01-4.7,1.01-2.29,0-4.03-.66-5.22-1.98ZM736.17,301.63v-.78c0-.62.02-1.31.07-2.06.05-.75.09-1.36.14-1.83l.21-2.56c-2.34.26-4.11.87-5.33,1.83-1.22.96-1.82,2.21-1.82,3.77,0,.73.15,1.45.46,2.17.3.73.69,1.27,1.16,1.63,1.73-.26,3.43-.98,5.12-2.17Z"/>
      <path class="cls-2" d="M770.1,305.01c-2.34-2.72-3.5-6.59-3.5-11.61,0-3.42.69-6.46,2.07-9.13,1.38-2.67,3.29-4.75,5.75-6.25,2.45-1.5,5.27-2.25,8.45-2.25s5.75.62,7.85,1.86c0,1.19-.21,2.78-.63,4.78-.42,1.99-.91,3.74-1.47,5.24-1.73-1.71-3.4-3.05-5.01-4.04-1.61-.98-2.96-1.48-4.03-1.48-1.17.88-2.09,2.15-2.77,3.81-.68,1.66-1.02,3.52-1.02,5.59,0,5.96,2.38,8.93,7.15,8.93,1.59,0,3.08-.25,4.49-.74,1.4-.49,2.62-1.2,3.65-2.14l.56,5.2c-1.26,1.86-2.97,3.38-5.12,4.54-2.15,1.17-4.3,1.75-6.45,1.75-4.3,0-7.62-1.36-9.95-4.08Z"/>
      <path class="cls-2" d="M801.71,307.1c-2.15-1.32-3.81-3.17-4.98-5.55-1.17-2.38-1.75-5.13-1.75-8.23,0-3.42.7-6.46,2.1-9.13,1.4-2.67,3.36-4.74,5.89-6.21,2.52-1.48,5.4-2.21,8.62-2.21,2.9,0,5.46.66,7.68,1.98,2.22,1.32,3.94,3.17,5.15,5.55,1.21,2.38,1.82,5.13,1.82,8.23,0,3.42-.72,6.46-2.17,9.13-1.45,2.67-3.47,4.74-6.06,6.21-2.59,1.48-5.55,2.21-8.87,2.21-2.8,0-5.28-.66-7.43-1.98ZM815.59,301.78c1.26-1.66,1.89-3.96,1.89-6.91,0-2.54-.56-4.74-1.68-6.6-1.12-1.86-2.64-3.13-4.56-3.81-2.29,0-4.11.88-5.47,2.64-1.36,1.76-2.03,4.14-2.03,7.15s.62,5.43,1.86,7.26c1.24,1.84,2.84,2.76,4.8,2.76,2.2,0,3.93-.83,5.19-2.49Z"/>
      <path class="cls-2" d="M833.18,308.23c.33-5.18.49-10.69.49-16.54,0-2.85-.08-5.02-.25-6.52-.16-1.5-.42-2.69-.77-3.57-.35-.88-.92-1.79-1.72-2.72.98-.98,2.04-1.7,3.19-2.14,1.14-.44,2.16-.66,3.05-.66,3.46,0,5.33,1.86,5.61,5.59,1.12-1.6,2.31-2.92,3.57-3.96,1.26-1.04,2.71-1.81,4.35-2.33.33,1.19.62,2.86.88,5.01.26,2.15.39,4.13.39,5.94-.84-.16-1.64-.23-2.38-.23-1.4,0-2.71.19-3.93.58-1.22.39-2.22.89-3.01,1.51-.09,3.31-.14,6.11-.14,8.39,0,5.44.47,9.32,1.4,11.65-1.31.31-3.06.47-5.26.47-1.54,0-3.36-.16-5.47-.47Z"/>
      <path class="cls-2" d="M857.57,308.23c.33-5.18.49-10.69.49-16.54,0-2.85-.08-5.02-.25-6.52-.16-1.5-.42-2.69-.77-3.57-.35-.88-.92-1.79-1.72-2.72.98-.98,2.04-1.7,3.19-2.14,1.14-.44,2.16-.66,3.05-.66,3.46,0,5.33,1.86,5.61,5.59,1.12-1.6,2.31-2.92,3.57-3.96,1.26-1.04,2.71-1.81,4.35-2.33.33,1.19.62,2.86.88,5.01.26,2.15.39,4.13.39,5.94-.84-.16-1.64-.23-2.38-.23-1.4,0-2.71.19-3.93.58-1.22.39-2.22.89-3.01,1.51-.09,3.31-.14,6.11-.14,8.39,0,5.44.47,9.32,1.4,11.65-1.31.31-3.06.47-5.26.47-1.54,0-3.36-.16-5.47-.47Z"/>
      <path class="cls-2" d="M880.21,266.13c1.87-2.43,3.76-4.56,5.68-6.37,1.73,2.33,3.65,4.45,5.75,6.37-1.73,2.33-3.65,4.45-5.75,6.37-1.68-2.23-3.57-4.35-5.68-6.37ZM882.56,307.53c-.77-.93-1.16-2.59-1.16-4.97,0-1.92.05-4.63.14-8.16.09-3.31.14-5.75.14-7.3,0-2.07-.12-4.01-.35-5.83-.23-1.81-.56-3.11-.98-3.88,1.73-.57,3.41-.97,5.05-1.2,1.64-.23,3.46-.35,5.47-.35-.23,1.5-.43,3.82-.6,6.95-.16,3.13-.25,6.64-.25,10.52,0,2.85.08,5.02.25,6.52.16,1.5.42,2.69.77,3.57.35.88.92,1.79,1.72,2.72-.98.98-2.04,1.7-3.19,2.14-1.15.44-2.16.66-3.05.66-1.87,0-3.19-.47-3.96-1.4Z"/>
      <path class="cls-2" d="M899.59,305.08c-1.99-2.72-2.98-6.72-2.98-12,0-5.7,1.03-10.01,3.08-12.93,2.06-2.92,5.09-4.39,9.11-4.39,2.85,0,5.42.83,7.71,2.49-.19-4.71-.61-8.36-1.26-10.95,2.76-1.04,6.28-1.55,10.58-1.55-.56,5.85-.84,15.74-.84,29.67,0,2.38.19,4.26.56,5.63.37,1.37,1.1,2.86,2.17,4.47-1.17.93-2.49,1.71-3.96,2.33-1.47.62-2.96,1.04-4.45,1.24-1.17-.98-1.99-2.23-2.45-3.73-1.26,1.19-2.63,2.12-4.1,2.8-1.47.67-2.91,1.01-4.31,1.01-3.93,0-6.88-1.36-8.87-4.08ZM916.31,301.08c0-1.66.05-4.19.14-7.61.09-3.42.14-6.03.14-7.85-1.5-.78-2.94-1.17-4.35-1.17-4.35,0-6.52,3.24-6.52,9.71,0,2.59.47,4.75,1.4,6.49.93,1.74,2.2,2.78,3.79,3.15,1.82-.26,3.62-1.17,5.4-2.72Z"/>
      <path class="cls-2" d="M932.74,307.1c-1.19-1.32-1.79-3.09-1.79-5.32,0-3.31,1.35-5.89,4.07-7.73,2.71-1.84,6.84-3.02,12.41-3.53-.14-1.92-.63-3.29-1.47-4.12-.84-.83-2.17-1.24-4-1.24-1.64,0-3.27.26-4.91.78-1.64.52-3.04,1.22-4.21,2.1l-.56-4.58c1.5-2.28,3.43-4.13,5.82-5.55,2.38-1.42,4.81-2.14,7.29-2.14,3.5,0,6.19.89,8.06,2.68,1.87,1.79,2.8,4.36,2.8,7.73,0,1.86-.12,3.96-.35,6.29-.19,2.49-.28,4.32-.28,5.51,0,1.92.19,3.43.56,4.54.37,1.11,1.1,2.32,2.17,3.61-2.38,1.66-4.98,2.64-7.78,2.95-1.26-.88-2.22-2.12-2.87-3.73-1.64,1.14-3.32,2.05-5.05,2.72-1.73.67-3.29,1.01-4.7,1.01-2.29,0-4.03-.66-5.22-1.98ZM946.94,301.63v-.78c0-.62.02-1.31.07-2.06.05-.75.09-1.36.14-1.83l.21-2.56c-2.34.26-4.11.87-5.33,1.83-1.22.96-1.82,2.21-1.82,3.77,0,.73.15,1.45.46,2.17.3.73.69,1.27,1.16,1.63,1.73-.26,3.43-.98,5.12-2.17Z"/>
      <path class="cls-2" d="M981.14,305.01c-2.29-2.72-3.43-6.59-3.43-11.61,0-3.42.68-6.46,2.03-9.13,1.35-2.67,3.26-4.75,5.71-6.25,2.45-1.5,5.24-2.25,8.38-2.25,4.11,0,7.22,1.43,9.32,4.27,2.1,2.85,3.15,7.04,3.15,12.58-2.62.67-5.65,1.26-9.11,1.75-3.46.49-6.85.76-10.16.82.37,1.86,1.12,3.24,2.24,4.12,1.12.88,2.66,1.32,4.63,1.32s3.9-.26,5.68-.78c1.78-.52,3.32-1.27,4.63-2.25l1.05,4.58c-1.54,2.07-3.62,3.74-6.24,5.01-2.62,1.27-5.28,1.9-7.99,1.9-4.3,0-7.59-1.36-9.88-4.08ZM985.21,269.86c1.82-.88,3.43-2.32,4.84-4.31,1.4-1.99,2.2-3.95,2.38-5.86,2.06,0,3.85.38,5.4,1.13,1.54.75,2.71,1.85,3.5,3.3-1.54,2.07-3.75,3.87-6.62,5.4-2.87,1.53-5.78,2.52-8.73,2.99l-.77-2.64ZM992.11,290.13c1.8-.47,3.31-1.01,4.52-1.63-.09-2.17-.71-3.99-1.86-5.44-1.15-1.45-2.56-2.18-4.24-2.18-1.17.88-2.1,2.25-2.8,4.12-.7,1.86-1.08,3.94-1.12,6.21,1.87-.26,3.7-.62,5.5-1.09Z"/>
      <path class="cls-2" d="M1029.61,305.08c-1.99-2.72-2.98-6.72-2.98-12,0-5.7,1.03-10.01,3.08-12.93,2.06-2.92,5.09-4.39,9.11-4.39,2.85,0,5.42.83,7.71,2.49-.19-4.71-.61-8.36-1.26-10.95,2.76-1.04,6.28-1.55,10.58-1.55-.56,5.85-.84,15.74-.84,29.67,0,2.38.19,4.26.56,5.63.37,1.37,1.1,2.86,2.17,4.47-1.17.93-2.49,1.71-3.96,2.33-1.47.62-2.96,1.04-4.45,1.24-1.17-.98-1.99-2.23-2.45-3.73-1.26,1.19-2.63,2.12-4.1,2.8-1.47.67-2.91,1.01-4.31,1.01-3.93,0-6.88-1.36-8.87-4.08ZM1046.33,301.08c0-1.66.05-4.19.14-7.61.09-3.42.14-6.03.14-7.85-1.5-.78-2.94-1.17-4.35-1.17-4.35,0-6.52,3.24-6.52,9.71,0,2.59.47,4.75,1.4,6.49.93,1.74,2.2,2.78,3.79,3.15,1.82-.26,3.62-1.17,5.4-2.72Z"/>
      <path class="cls-2" d="M1062.59,266.13c1.87-2.43,3.76-4.56,5.68-6.37,1.73,2.33,3.65,4.45,5.75,6.37-1.73,2.33-3.65,4.45-5.75,6.37-1.68-2.23-3.57-4.35-5.68-6.37ZM1064.94,307.53c-.77-.93-1.16-2.59-1.16-4.97,0-1.92.05-4.63.14-8.16.09-3.31.14-5.75.14-7.3,0-2.07-.12-4.01-.35-5.83-.23-1.81-.56-3.11-.98-3.88,1.73-.57,3.41-.97,5.05-1.2,1.64-.23,3.46-.35,5.47-.35-.23,1.5-.43,3.82-.6,6.95-.16,3.13-.25,6.64-.25,10.52,0,2.85.08,5.02.25,6.52.16,1.5.42,2.69.77,3.57.35.88.92,1.79,1.72,2.72-.98.98-2.04,1.7-3.19,2.14-1.15.44-2.16.66-3.05.66-1.87,0-3.19-.47-3.96-1.4Z"/>
      <path class="cls-2" d="M1078.85,306.29c0-1.35.1-2.56.32-3.65s.55-2.28,1.02-3.57c.93,1.24,2.21,2.24,3.82,2.99,1.61.75,3.42,1.13,5.43,1.13,3.32,0,4.98-.85,4.98-2.56,0-.78-.37-1.4-1.12-1.86-.75-.47-2.01-1.09-3.79-1.86-2.06-.88-3.77-1.73-5.15-2.56-1.38-.83-2.57-1.99-3.57-3.5-1.01-1.5-1.51-3.37-1.51-5.59,0-2.9,1.13-5.2,3.4-6.91,2.27-1.71,5.29-2.56,9.08-2.56,1.96,0,3.95.17,5.96.5,2.01.34,3.74.79,5.19,1.36,0,1.29-.25,2.98-.74,5.05-.49,2.07-1.02,3.57-1.58,4.51-1.78-1.55-3.53-2.78-5.26-3.69-1.73-.91-3.22-1.36-4.49-1.36-.56.16-1.04.43-1.44.82-.4.39-.6.82-.6,1.28,0,.67.4,1.28,1.19,1.83.79.54,2.06,1.2,3.78,1.98,2.06.93,3.76,1.81,5.12,2.64,1.35.83,2.52,1.94,3.5,3.34.98,1.4,1.47,3.11,1.47,5.13,0,3.16-1.16,5.61-3.47,7.34-2.31,1.74-5.55,2.6-9.71,2.6-5,0-8.95-.93-11.85-2.8Z"/>
      <path class="cls-2" d="M1110.5,309.4c.16-5.54.25-11.44.25-17.71,0-2.85-.08-5.02-.25-6.52-.16-1.5-.42-2.69-.77-3.57-.35-.88-.92-1.79-1.72-2.72.98-.98,2.04-1.7,3.19-2.14,1.14-.44,2.16-.66,3.05-.66,2.76,0,4.44,1.35,5.05,4.04,1.21-1.24,2.6-2.21,4.17-2.91,1.56-.7,3.21-1.05,4.94-1.05,3.65,0,6.46,1.33,8.45,4,1.99,2.67,2.98,6.54,2.98,11.61,0,5.39-1.4,9.59-4.21,12.62s-6.71,4.54-11.71,4.54c-1.68,0-3.22-.23-4.63-.7.23,5.64.63,9.79,1.19,12.43-3.08,1.04-6.61,1.55-10.58,1.55.23-3,.43-7.28.6-12.82ZM1128.55,301.51c1.17-1.68,1.75-4.03,1.75-7.03,0-2.38-.44-4.44-1.33-6.18-.89-1.73-2.15-3.02-3.79-3.84-2.01,0-3.93.6-5.75,1.79-.19,4.76-.28,9.19-.28,13.28v2.25c1.26,1.5,2.78,2.25,4.56,2.25,2.06,0,3.67-.84,4.84-2.52Z"/>
      <path class="cls-2" d="M1145.86,298.37l.14-4.89.14-5.2c0-5.07-.44-8.7-1.33-10.87,3.08-1.04,6.61-1.55,10.58-1.55-.28,4.09-.42,10.56-.42,19.42,0,1.92.28,3.26.84,4.04.56.78,1.47,1.17,2.73,1.17,1.82,0,3.43-.54,4.84-1.63.09-3.11.14-5.23.14-6.37l.14-4.19c0-5.07-.44-8.7-1.33-10.87,3.08-1.04,6.61-1.55,10.58-1.55-.19,3.21-.37,7.02-.56,11.42-.19,4.4-.28,7.33-.28,8.78,0,2.28.19,4.07.56,5.36.37,1.29,1.1,2.67,2.17,4.12-2.52,1.97-5.33,3.16-8.41,3.57-1.31-1.04-2.22-2.56-2.73-4.58-1.17,1.45-2.55,2.58-4.14,3.38-1.59.8-3.2,1.2-4.84,1.2-5.89,0-8.83-3.57-8.83-10.72Z"/>
      <path class="cls-2" d="M1183.99,307.22c-.94-1.14-1.4-3.13-1.4-5.98,0-1.55.05-3.93.14-7.15.09-3.62.14-6.6.14-8.93,0-.72-.05-1.4-.14-2.02-2.01,0-3.35-.23-4.03-.7-.68-.47-1.02-1.4-1.02-2.8,3.36-1.81,6.7-4.43,10.02-7.84l3.78.23c.19,1.76.3,3.57.35,5.44,3.13-.05,5.42-.26,6.87-.62,0,1.4-.09,2.64-.28,3.73-.19,1.09-.49,2.17-.91,3.26-1.36-.57-3.29-.88-5.82-.93-.14,1.86-.21,3.78-.21,5.75,0,5.39.26,9.66.77,12.82,1.82-.05,3.65-.28,5.47-.7l.42,3.34c-.98,1.45-2.35,2.62-4.1,3.5s-3.52,1.32-5.29,1.32c-2.24,0-3.83-.57-4.77-1.71Z"/>
      <path class="cls-2" d="M1202.95,307.1c-1.19-1.32-1.79-3.09-1.79-5.32,0-3.31,1.35-5.89,4.07-7.73,2.71-1.84,6.84-3.02,12.41-3.53-.14-1.92-.63-3.29-1.47-4.12-.84-.83-2.17-1.24-4-1.24-1.64,0-3.27.26-4.91.78-1.64.52-3.04,1.22-4.21,2.1l-.56-4.58c1.5-2.28,3.43-4.13,5.82-5.55,2.38-1.42,4.81-2.14,7.29-2.14,3.5,0,6.19.89,8.06,2.68,1.87,1.79,2.8,4.36,2.8,7.73,0,1.86-.12,3.96-.35,6.29-.19,2.49-.28,4.32-.28,5.51,0,1.92.19,3.43.56,4.54.37,1.11,1.1,2.32,2.17,3.61-2.38,1.66-4.98,2.64-7.78,2.95-1.26-.88-2.22-2.12-2.87-3.73-1.64,1.14-3.32,2.05-5.05,2.72-1.73.67-3.29,1.01-4.7,1.01-2.29,0-4.03-.66-5.22-1.98ZM1217.14,301.63v-.78c0-.62.02-1.31.07-2.06.05-.75.09-1.36.14-1.83l.21-2.56c-2.34.26-4.11.87-5.33,1.83-1.22.96-1.82,2.21-1.82,3.77,0,.73.15,1.45.46,2.17.3.73.69,1.27,1.16,1.63,1.73-.26,3.43-.98,5.12-2.17Z"/>
      <path class="cls-2" d="M1235.47,305.08c-1.99-2.72-2.98-6.72-2.98-12,0-5.7,1.03-10.01,3.08-12.93,2.06-2.92,5.09-4.39,9.11-4.39,2.85,0,5.42.83,7.71,2.49-.19-4.71-.61-8.36-1.26-10.95,2.76-1.04,6.28-1.55,10.58-1.55-.56,5.85-.84,15.74-.84,29.67,0,2.38.19,4.26.56,5.63.37,1.37,1.1,2.86,2.17,4.47-1.17.93-2.49,1.71-3.96,2.33-1.47.62-2.96,1.04-4.45,1.24-1.17-.98-1.99-2.23-2.45-3.73-1.26,1.19-2.63,2.12-4.1,2.8-1.47.67-2.91,1.01-4.31,1.01-3.93,0-6.88-1.36-8.87-4.08ZM1252.19,301.08c0-1.66.05-4.19.14-7.61.09-3.42.14-6.03.14-7.85-1.5-.78-2.94-1.17-4.35-1.17-4.35,0-6.52,3.24-6.52,9.71,0,2.59.47,4.75,1.4,6.49.93,1.74,2.2,2.78,3.79,3.15,1.82-.26,3.62-1.17,5.4-2.72Z"/>
      <path class="cls-2" d="M1268.62,307.1c-1.19-1.32-1.79-3.09-1.79-5.32,0-3.31,1.35-5.89,4.07-7.73,2.71-1.84,6.84-3.02,12.41-3.53-.14-1.92-.63-3.29-1.47-4.12-.84-.83-2.17-1.24-4-1.24-1.64,0-3.27.26-4.91.78-1.64.52-3.04,1.22-4.21,2.1l-.56-4.58c1.5-2.28,3.43-4.13,5.82-5.55,2.38-1.42,4.81-2.14,7.29-2.14,3.5,0,6.19.89,8.06,2.68,1.87,1.79,2.8,4.36,2.8,7.73,0,1.86-.12,3.96-.35,6.29-.19,2.49-.28,4.32-.28,5.51,0,1.92.19,3.43.56,4.54.37,1.11,1.1,2.32,2.17,3.61-2.38,1.66-4.98,2.64-7.78,2.95-1.26-.88-2.22-2.12-2.87-3.73-1.64,1.14-3.32,2.05-5.05,2.72-1.73.67-3.29,1.01-4.7,1.01-2.29,0-4.03-.66-5.22-1.98ZM1282.82,301.63v-.78c0-.62.02-1.31.07-2.06.05-.75.09-1.36.14-1.83l.21-2.56c-2.34.26-4.11.87-5.33,1.83-1.22.96-1.82,2.21-1.82,3.77,0,.73.15,1.45.46,2.17.3.73.69,1.27,1.16,1.63,1.73-.26,3.43-.98,5.12-2.17Z"/>
      <path class="cls-2" d="M1317.02,305.01c-2.29-2.72-3.43-6.59-3.43-11.61,0-3.42.68-6.46,2.03-9.13,1.35-2.67,3.26-4.75,5.71-6.25,2.45-1.5,5.24-2.25,8.38-2.25,4.11,0,7.22,1.43,9.32,4.27,2.1,2.85,3.15,7.04,3.15,12.58-2.62.67-5.65,1.26-9.11,1.75-3.46.49-6.85.76-10.16.82.37,1.86,1.12,3.24,2.24,4.12,1.12.88,2.66,1.32,4.63,1.32s3.9-.26,5.68-.78c1.78-.52,3.32-1.27,4.63-2.25l1.05,4.58c-1.54,2.07-3.62,3.74-6.24,5.01-2.62,1.27-5.28,1.9-7.99,1.9-4.3,0-7.59-1.36-9.88-4.08ZM1327.99,290.13c1.8-.47,3.31-1.01,4.52-1.63-.09-2.17-.71-3.99-1.86-5.44-1.15-1.45-2.56-2.18-4.24-2.18-1.17.88-2.1,2.25-2.8,4.12-.7,1.86-1.08,3.94-1.12,6.21,1.87-.26,3.7-.62,5.5-1.09Z"/>
      <path class="cls-2" d="M1371.97,307.03c-1.03-1.27-1.88-2.87-2.56-4.82-.68-1.94-1.48-4.62-2.42-8.04-1.12-3.99-2.14-7.25-3.05-9.79-.91-2.54-2.04-4.74-3.4-6.6,2.71-1.09,6.4-1.63,11.07-1.63.56,3.42,1.55,7.65,2.98,12.7,1.42,5.05,2.77,9.05,4.03,12,1.92-6.94,3.24-11.92,3.96-14.95s1.09-5.24,1.09-6.64c0-.88-.14-1.63-.42-2.25,2.38-.57,5.05-.85,7.99-.85-2.66,7.15-5.58,17.14-8.76,29.98l-6.87,2.8c-1.4,0-2.62-.63-3.64-1.9Z"/>
      <path class="cls-2" d="M1397,305.01c-2.29-2.72-3.43-6.59-3.43-11.61,0-3.42.68-6.46,2.03-9.13,1.35-2.67,3.26-4.75,5.71-6.25,2.45-1.5,5.25-2.25,8.38-2.25,4.11,0,7.22,1.43,9.32,4.27,2.1,2.85,3.15,7.04,3.15,12.58-2.62.67-5.65,1.26-9.11,1.75-3.46.49-6.85.76-10.16.82.37,1.86,1.12,3.24,2.24,4.12,1.12.88,2.66,1.32,4.63,1.32s3.9-.26,5.68-.78c1.78-.52,3.32-1.27,4.63-2.25l1.05,4.58c-1.54,2.07-3.62,3.74-6.24,5.01-2.62,1.27-5.28,1.9-7.99,1.9-4.3,0-7.59-1.36-9.88-4.08ZM1407.97,290.13c1.8-.47,3.3-1.01,4.52-1.63-.09-2.17-.71-3.99-1.86-5.44-1.15-1.45-2.56-2.18-4.24-2.18-1.17.88-2.1,2.25-2.8,4.12-.7,1.86-1.08,3.94-1.12,6.21,1.87-.26,3.7-.62,5.5-1.09Z"/>
      <path class="cls-2" d="M1429.38,308.23c.33-5.18.49-10.69.49-16.54,0-2.85-.08-5.02-.25-6.52-.16-1.5-.42-2.69-.77-3.57-.35-.88-.92-1.79-1.72-2.72,1.07-.98,2.23-1.7,3.47-2.14,1.24-.44,2.35-.66,3.33-.66,2.8,0,4.44,1.53,4.91,4.58,1.26-1.55,2.7-2.76,4.31-3.61s3.33-1.28,5.15-1.28c5.47,0,8.2,3.57,8.2,10.72l-.14,4.89-.14,5.2c0,5.44.47,9.32,1.4,11.65-1.31.31-3.25.47-5.82.47-1.64,0-3.27-.16-4.91-.47.33-5.28.49-11.03.49-17.24,0-2.07-.33-3.56-.98-4.47-.65-.91-1.71-1.36-3.15-1.36-1.82,0-3.27.52-4.35,1.55-.14,2.69-.21,5.98-.21,9.86,0,5.44.47,9.32,1.4,11.65-1.31.31-2.87.47-4.7.47-2.38,0-4.39-.16-6.03-.47Z"/>
      <path class="cls-2" d="M1465.48,305.01c-2.34-2.72-3.5-6.59-3.5-11.61,0-3.42.69-6.46,2.07-9.13,1.38-2.67,3.29-4.75,5.75-6.25,2.45-1.5,5.27-2.25,8.45-2.25s5.75.62,7.85,1.86c0,1.19-.21,2.78-.63,4.78-.42,1.99-.91,3.74-1.47,5.24-1.73-1.71-3.4-3.05-5.01-4.04-1.61-.98-2.96-1.48-4.03-1.48-1.17.88-2.09,2.15-2.77,3.81-.68,1.66-1.02,3.52-1.02,5.59,0,5.96,2.38,8.93,7.15,8.93,1.59,0,3.08-.25,4.49-.74,1.4-.49,2.62-1.2,3.64-2.14l.56,5.2c-1.26,1.86-2.97,3.38-5.12,4.54-2.15,1.17-4.3,1.75-6.45,1.75-4.3,0-7.62-1.36-9.95-4.08Z"/>
      <path class="cls-2" d="M1491.69,266.13c1.87-2.43,3.76-4.56,5.68-6.37,1.73,2.33,3.65,4.45,5.75,6.37-1.73,2.33-3.64,4.45-5.75,6.37-1.68-2.23-3.57-4.35-5.68-6.37ZM1494.04,307.53c-.77-.93-1.16-2.59-1.16-4.97,0-1.92.05-4.63.14-8.16.09-3.31.14-5.75.14-7.3,0-2.07-.12-4.01-.35-5.83-.23-1.81-.56-3.11-.98-3.88,1.73-.57,3.41-.97,5.05-1.2,1.63-.23,3.46-.35,5.47-.35-.23,1.5-.43,3.82-.6,6.95-.16,3.13-.25,6.64-.25,10.52,0,2.85.08,5.02.25,6.52.16,1.5.42,2.69.77,3.57.35.88.92,1.79,1.72,2.72-.98.98-2.04,1.7-3.19,2.14-1.15.44-2.16.66-3.05.66-1.87,0-3.19-.47-3.96-1.4Z"/>
      <path class="cls-2" d="M1511.07,305.08c-1.99-2.72-2.98-6.72-2.98-12,0-5.7,1.03-10.01,3.08-12.93,2.06-2.92,5.09-4.39,9.11-4.39,2.85,0,5.42.83,7.71,2.49-.19-4.71-.61-8.36-1.26-10.95,2.76-1.04,6.28-1.55,10.58-1.55-.56,5.85-.84,15.74-.84,29.67,0,2.38.19,4.26.56,5.63.37,1.37,1.1,2.86,2.17,4.47-1.17.93-2.49,1.71-3.96,2.33-1.47.62-2.96,1.04-4.45,1.24-1.17-.98-1.99-2.23-2.45-3.73-1.26,1.19-2.63,2.12-4.1,2.8s-2.91,1.01-4.31,1.01c-3.93,0-6.88-1.36-8.87-4.08ZM1527.79,301.08c0-1.66.05-4.19.14-7.61.09-3.42.14-6.03.14-7.85-1.5-.78-2.94-1.17-4.35-1.17-4.35,0-6.52,3.24-6.52,9.71,0,2.59.47,4.75,1.4,6.49.93,1.74,2.2,2.78,3.79,3.15,1.82-.26,3.62-1.17,5.4-2.72Z"/>
      <path class="cls-2" d="M1544.22,307.1c-1.19-1.32-1.79-3.09-1.79-5.32,0-3.31,1.35-5.89,4.07-7.73,2.71-1.84,6.84-3.02,12.41-3.53-.14-1.92-.63-3.29-1.47-4.12-.84-.83-2.17-1.24-4-1.24-1.64,0-3.27.26-4.91.78-1.64.52-3.04,1.22-4.21,2.1l-.56-4.58c1.49-2.28,3.43-4.13,5.82-5.55,2.38-1.42,4.81-2.14,7.29-2.14,3.5,0,6.19.89,8.06,2.68,1.87,1.79,2.8,4.36,2.8,7.73,0,1.86-.12,3.96-.35,6.29-.19,2.49-.28,4.32-.28,5.51,0,1.92.19,3.43.56,4.54.37,1.11,1.1,2.32,2.17,3.61-2.38,1.66-4.98,2.64-7.78,2.95-1.26-.88-2.22-2.12-2.87-3.73-1.64,1.14-3.32,2.05-5.05,2.72-1.73.67-3.29,1.01-4.7,1.01-2.29,0-4.03-.66-5.22-1.98ZM1558.42,301.63v-.78c0-.62.02-1.31.07-2.06.05-.75.09-1.36.14-1.83l.21-2.56c-2.34.26-4.11.87-5.33,1.83-1.22.96-1.82,2.21-1.82,3.77,0,.73.15,1.45.46,2.17.3.73.69,1.27,1.16,1.63,1.73-.26,3.43-.98,5.12-2.17Z"/>
      <path class="cls-2" d="M1573.98,302.56c1.82-2.49,3.86-4.74,6.1-6.76,1.96,2.54,4.02,4.79,6.17,6.76-1.87,2.49-3.93,4.77-6.17,6.84-1.78-2.38-3.81-4.66-6.1-6.84ZM1575.73,279.57c0-2.8-.12-5.23-.35-7.3-.23-2.07-.56-3.52-.98-4.35,1.73-.78,3.39-1.33,4.98-1.67,1.59-.34,3.43-.5,5.54-.5-.23,1.97-.43,5.01-.6,9.13-.16,4.12-.25,8.48-.25,13.09-2.8,2.43-4.86,4.4-6.17,5.9h-2.17v-14.29Z"/>
    </g>
    <text class="cls-1" transform="translate(1 101.54)"><tspan x="0" y="0">CONHEA AS REGRAS E REGULAMENTAES </tspan></text>
  </g>
</svg>